0
SECTION
2
HEADER
9
$INSUNITS
70
4
9
$ACADVER
1
AC1014
9
$HANDSEED
5
FFFF
0
ENDSEC
0
SECTION
2
TABLES
0
TABLE
2
VPORT
5
8
100
AcDbSymbolTable
0
ENDTAB
0
TABLE
2
LTYPE
5
5
100
AcDbSymbolTable
0
LTYPE
5
14
100
AcDbSymbolTableRecord
100
AcDbLinetypeTableRecord
2
BYBLOCK
70
0
0
LTYPE
5
15
100
AcDbSymbolTableRecord
100
AcDbLinetypeTableRecord
2
BYLAYER
70
0
0
ENDTAB
0
TABLE
2
LAYER
5
2
100
AcDbSymbolTable
70
2
0
LAYER
5
50
100
AcDbSymbolTableRecord
100
AcDbLayerTableRecord
2
0
70
0
6
CONTINUOUS
0
ENDTAB
0
TABLE
2
STYLE
5
3
100
AcDbSymbolTable
70
1
0
STYLE
5
11
100
AcDbSymbolTableRecord
100
AcDbTextStyleTableRecord
2
STANDARD
70
0
0
ENDTAB
0
TABLE
2
VIEW
5
6
100
AcDbSymbolTable
70
0
0
ENDTAB
0
TABLE
2
UCS
5
7
100
AcDbSymbolTable
70
0
0
ENDTAB
0
TABLE
2
APPID
5
9
100
AcDbSymbolTable
70
2
0
APPID
5
12
100
AcDbSymbolTableRecord
100
AcDbRegAppTableRecord
2
ACAD
70
0
0
ENDTAB
0
TABLE
2
DIMSTYLE
5
A
100
AcDbSymbolTable
70
1
0
ENDTAB
0
TABLE
2
BLOCK_RECORD
5
1
100
AcDbSymbolTable
70
1
0
BLOCK_RECORD
5
1F
100
AcDbSymbolTableRecord
100
AcDbBlockTableRecord
2
*MODEL_SPACE
0
BLOCK_RECORD
5
1B
100
AcDbSymbolTableRecord
100
AcDbBlockTableRecord
2
*PAPER_SPACE
0
ENDTAB
0
ENDSEC
0
SECTION
2
BLOCKS
0
BLOCK
5
20
100
AcDbEntity
100
AcDbBlockBegin
2
*MODEL_SPACE
0
ENDBLK
5
21
100
AcDbEntity
100
AcDbBlockEnd
0
BLOCK
5
1C
100
AcDbEntity
100
AcDbBlockBegin
2
*PAPER_SPACE
0
ENDBLK
5
1D
100
AcDbEntity
100
AcDbBlockEnd
0
ENDSEC
0
SECTION
2
ENTITIES
0
LWPOLYLINE
5
100
100
AcDbEntity
8
0
100
AcDbPolyline
90
40
70
1
43
0.0
10
-330.39533999999998
20
-280.38549999999998
10
-330.45211999999998
20
-280.62200000000001
10
-330.47120000000001
20
-280.86450000000002
10
-330.45211999999998
20
-281.10700000000003
10
-330.39533999999998
20
-281.34350000000001
10
-330.30225999999999
20
-281.56819999999999
10
-330.17517999999995
20
-281.7756
10
-330.01720999999998
20
-281.96050000000002
10
-329.83226599999995
20
-282.11850000000004
10
-329.62488500000001
20
-282.24560000000002
10
-329.40017499999999
20
-282.33859999999999
10
-329.16367299999996
20
-282.3954
10
-328.9212
20
-282.41449999999998
10
-328.67872699999998
20
-282.3954
10
-328.44222500000001
20
-282.33859999999999
10
-328.21751499999999
20
-282.24560000000002
10
-328.01013399999994
20
-282.11850000000004
10
-327.82519000000002
20
-281.96050000000002
10
-327.66722000000004
20
-281.7756
10
-327.54013999999995
20
-281.56819999999999
10
-327.44706000000002
20
-281.34350000000001
10
-327.39027999999996
20
-281.10700000000003
10
-327.37119999999999
20
-280.86450000000002
10
-327.39027999999996
20
-280.62200000000001
10
-327.44706000000002
20
-280.38549999999998
10
-327.54013999999995
20
-280.16080999999997
10
-327.66722000000004
20
-279.95343000000003
10
-327.82519000000002
20
-279.76848000000001
10
-328.01013399999994
20
-279.61052000000001
10
-328.21751499999999
20
-279.48344000000003
10
-328.44222500000001
20
-279.39035999999999
10
-328.67872699999998
20
-279.33358000000004
10
-328.9212
20
-279.31450000000001
10
-329.16367299999996
20
-279.33358000000004
10
-329.40017499999999
20
-279.39035999999999
10
-329.62488500000001
20
-279.48344000000003
10
-329.83226599999995
20
-279.61052000000001
10
-330.01720999999998
20
-279.76848000000001
10
-330.17517999999995
20
-279.95343000000003
10
-330.30225999999999
20
-280.16080999999997
0
LWPOLYLINE
5
101
100
AcDbEntity
8
0
100
AcDbPolyline
90
40
70
1
43
0.0
10
-390.47120000000001
20
-280.86450000000002
10
-390.45209999999997
20
-281.10700000000003
10
-390.39530000000002
20
-281.34350000000001
10
-390.30229999999995
20
-281.56819999999999
10
-390.17519999999996
20
-281.7756
10
-390.0172
20
-281.96050000000002
10
-389.83229999999998
20
-282.11850000000004
10
-389.62489999999997
20
-282.24560000000002
10
-389.40019999999998
20
-282.33859999999999
10
-389.16370000000001
20
-282.3954
10
-388.9212
20
-282.41449999999998
10
-388.67869999999994
20
-282.3954
10
-388.44220000000001
20
-282.33859999999999
10
-388.21749999999997
20
-282.24560000000002
10
-388.01009999999997
20
-282.11850000000004
10
-387.8252
20
-281.96050000000002
10
-387.66719999999998
20
-281.7756
10
-387.54009999999994
20
-281.56819999999999
10
-387.44709999999998
20
-281.34350000000001
10
-387.39030000000002
20
-281.10700000000003
10
-387.37119999999999
20
-280.86450000000002
10
-387.39030000000002
20
-280.62200000000001
10
-387.44709999999998
20
-280.38549999999998
10
-387.54009999999994
20
-280.16080999999997
10
-387.66719999999998
20
-279.95343000000003
10
-387.8252
20
-279.76848000000001
10
-388.01009999999997
20
-279.61052000000001
10
-388.21749999999997
20
-279.48344000000003
10
-388.44220000000001
20
-279.39035999999999
10
-388.67869999999994
20
-279.33358000000004
10
-388.9212
20
-279.31450000000001
10
-389.16370000000001
20
-279.33358000000004
10
-389.40019999999998
20
-279.39035999999999
10
-389.62489999999997
20
-279.48344000000003
10
-389.83229999999998
20
-279.61052000000001
10
-390.0172
20
-279.76848000000001
10
-390.17519999999996
20
-279.95343000000003
10
-390.30229999999995
20
-280.16080999999997
10
-390.39530000000002
20
-280.38549999999998
10
-390.45209999999997
20
-280.62200000000001
0
LWPOLYLINE
5
102
100
AcDbEntity
8
0
100
AcDbPolyline
90
42
70
1
43
0.0
10
-396.4212
20
-280.86450000000002
10
-396.32889999999998
20
-279.69123999999999
10
-396.05410000000001
20
-278.54687000000001
10
-395.6037
20
-277.45956999999999
10
-394.98879999999997
20
-276.45611000000002
10
-394.22449999999998
20
-275.56119999999999
10
-393.32960000000003
20
-274.79687000000001
10
-392.32609999999994
20
-274.18195000000003
10
-391.23879999999997
20
-273.73158000000001
10
-390.09450000000004
20
-273.45684
10
-388.9212
20
-273.36450000000002
10
-328.9212
20
-273.36450000000002
10
-327.74793999999997
20
-273.45684
10
-326.60356999999999
20
-273.73158000000001
10
-325.51626999999996
20
-274.18195000000003
10
-324.51280999999994
20
-274.79687000000001
10
-323.61789999999996
20
-275.56119999999999
10
-322.85356999999999
20
-276.45611000000002
10
-322.23864999999995
20
-277.45956999999999
10
-321.78827999999999
20
-278.54687000000001
10
-321.51353999999998
20
-279.69123999999999
10
-321.4212
20
-280.86450000000002
10
-321.51353999999998
20
-282.0378
10
-321.78827999999999
20
-283.18209999999999
10
-322.23864999999995
20
-284.26940000000002
10
-322.85356999999999
20
-285.27289999999999
10
-323.61789999999996
20
-286.1678
10
-324.51280999999994
20
-286.93209999999999
10
-325.51626999999996
20
-287.54700000000003
10
-326.60356999999999
20
-287.99739999999997
10
-327.74793999999997
20
-288.2722
10
-328.9212
20
-288.36450000000002
10
-388.9212
20
-288.36450000000002
10
-390.09450000000004
20
-288.2722
10
-391.23879999999997
20
-287.99739999999997
10
-392.32609999999994
20
-287.54700000000003
10
-393.32960000000003
20
-286.93209999999999
10
-394.22449999999998
20
-286.1678
10
-394.98879999999997
20
-285.27289999999999
10
-395.6037
20
-284.26940000000002
10
-396.05410000000001
20
-283.18209999999999
10
-396.32889999999998
20
-282.0378
0
LWPOLYLINE
5
103
100
AcDbEntity
8
0
100
AcDbPolyline
90
40
70
1
43
0.0
10
-330.47120000000001
20
-240.36450000000002
10
-330.45211999999998
20
-240.607
10
-330.39533999999998
20
-240.84350000000001
10
-330.30225999999999
20
-241.06820000000002
10
-330.17517999999995
20
-241.27560000000003
10
-330.01720999999998
20
-241.46050000000002
10
-329.83226599999995
20
-241.61850000000001
10
-329.62488500000001
20
-241.7456
10
-329.40017499999999
20
-241.83860000000004
10
-329.16367299999996
20
-241.8954
10
-328.9212
20
-241.91450000000003
10
-328.67872699999998
20
-241.8954
10
-328.44222500000001
20
-241.83860000000004
10
-328.21751499999999
20
-241.7456
10
-328.01013399999994
20
-241.61850000000001
10
-327.82519000000002
20
-241.46050000000002
10
-327.66722000000004
20
-241.27560000000003
10
-327.54013999999995
20
-241.06820000000002
10
-327.44706000000002
20
-240.84350000000001
10
-327.39027999999996
20
-240.607
10
-327.37119999999999
20
-240.36450000000002
10
-327.39027999999996
20
-240.12200000000001
10
-327.44706000000002
20
-239.88550000000001
10
-327.54013999999995
20
-239.66080000000002
10
-327.66722000000004
20
-239.45340000000002
10
-327.82519000000002
20
-239.26850000000002
10
-328.01013399999994
20
-239.11050000000003
10
-328.21751499999999
20
-238.98340000000002
10
-328.44222500000001
20
-238.8904
10
-328.67872699999998
20
-238.83360000000005
10
-328.9212
20
-238.81450000000001
10
-329.16367299999996
20
-238.83360000000005
10
-329.40017499999999
20
-238.8904
10
-329.62488500000001
20
-238.98340000000002
10
-329.83226599999995
20
-239.11050000000003
10
-330.01720999999998
20
-239.26850000000002
10
-330.17517999999995
20
-239.45340000000002
10
-330.30225999999999
20
-239.66080000000002
10
-330.39533999999998
20
-239.88550000000001
10
-330.45211999999998
20
-240.12200000000001
0
LWPOLYLINE
5
104
100
AcDbEntity
8
0
100
AcDbPolyline
90
80
70
1
43
0.0
10
-365.46799999999996
20
-240.32400000000001
10
-365.46479999999997
20
-240.44540000000001
10
-365.45529999999997
20
-240.56650000000002
10
-365.43319999999994
20
-240.6859
10
-365.40479999999997
20
-240.804
10
-365.36429999999996
20
-240.91840000000002
10
-365.31779999999998
20
-241.03059999999999
10
-365.25990000000002
20
-241.13740000000001
10
-365.19639999999993
20
-241.24090000000001
10
-365.12249999999995
20
-241.3373
10
-365.04359999999997
20
-241.42960000000002
10
-364.95549999999992
20
-241.51320000000001
10
-364.86320000000001
20
-241.59210000000002
10
-364.76310000000001
20
-241.6609
10
-364.65949999999998
20
-241.72430000000003
10
-364.54989999999998
20
-241.77660000000003
10
-364.43770000000001
20
-241.82310000000001
10
-364.32130000000001
20
-241.85760000000002
10
-364.20319999999998
20
-241.88590000000002
10
-364.08279999999996
20
-241.90180000000001
10
-363.96169999999995
20
-241.91130000000001
10
-363.84029999999996
20
-241.90810000000002
10
-363.71919999999994
20
-241.89860000000004
10
-363.59980000000002
20
-241.87650000000002
10
-363.48169999999993
20
-241.84810000000002
10
-363.36720000000003
20
-241.80759999999998
10
-363.25509999999997
20
-241.7611
10
-363.14830000000001
20
-241.70320000000001
10
-363.04480000000001
20
-241.63970000000003
10
-362.94839999999999
20
-241.56580000000002
10
-362.85609999999997
20
-241.48690000000002
10
-362.77249999999992
20
-241.39880000000002
10
-362.6936
20
-241.30650000000003
10
-362.62479999999994
20
-241.20640000000003
10
-362.56139999999994
20
-241.10280000000003
10
-362.50909999999999
20
-240.99320000000003
10
-362.46260000000001
20
-240.881
10
-362.42809999999997
20
-240.7646
10
-362.39979999999997
20
-240.6465
10
-362.38389999999993
20
-240.52610000000001
10
-362.37439999999998
20
-240.40500000000003
10
-362.37759999999992
20
-240.28359999999998
10
-362.38709999999998
20
-240.16249999999999
10
-362.40919999999994
20
-240.04310000000001
10
-362.43759999999997
20
-239.92500000000001
10
-362.47810000000004
20
-239.81049999999999
10
-362.52459999999996
20
-239.69840000000002
10
-362.58249999999998
20
-239.5916
10
-362.64600000000002
20
-239.48810000000003
10
-362.71989999999994
20
-239.39170000000001
10
-362.79879999999997
20
-239.29940000000002
10
-362.88689999999997
20
-239.21580000000003
10
-362.97919999999999
20
-239.13690000000003
10
-363.07929999999999
20
-239.06810000000002
10
-363.18289999999996
20
-239.00470000000001
10
-363.29249999999996
20
-238.95240000000001
10
-363.40469999999993
20
-238.90590000000003
10
-363.52109999999993
20
-238.87140000000002
10
-363.63920000000002
20
-238.84309999999999
10
-363.75959999999998
20
-238.82720000000003
10
-363.88069999999999
20
-238.81770000000003
10
-364.00210000000004
20
-238.82090000000002
10
-364.12319999999994
20
-238.8304
10
-364.24259999999998
20
-238.85250000000002
10
-364.36070000000001
20
-238.88090000000003
10
-364.47519999999997
20
-238.92140000000001
10
-364.58729999999997
20
-238.96790000000004
10
-364.69409999999993
20
-239.0258
10
-364.79759999999999
20
-239.08930000000001
10
-364.89399999999995
20
-239.16320000000002
10
-364.98629999999997
20
-239.24210000000002
10
-365.06989999999996
20
-239.33019999999999
10
-365.14879999999999
20
-239.42250000000001
10
-365.2176
20
-239.52260000000001
10
-365.28099999999995
20
-239.62620000000001
10
-365.33330000000001
20
-239.73580000000001
10
-365.37979999999999
20
-239.84800000000001
10
-365.41429999999997
20
-239.96440000000001
10
-365.44259999999997
20
-240.08250000000001
10
-365.45850000000002
20
-240.20290000000003
0
LWPOLYLINE
5
105
100
AcDbEntity
8
0
100
AcDbPolyline
90
40
70
1
43
0.0
10
-426.09089999999992
20
-205.2834
10
-426.08449999999999
20
-205.5265
10
-426.04019999999997
20
-205.76570000000004
10
-425.959
20
-205.99490000000003
10
-425.84289999999999
20
-206.20869999999999
10
-425.69490000000002
20
-206.40170000000001
10
-425.51839999999999
20
-206.56909999999999
10
-425.31799999999998
20
-206.70680000000002
10
-425.09839999999997
20
-206.81150000000002
10
-424.86519999999996
20
-206.88060000000002
10
-424.6241
20
-206.91239999999999
10
-424.38099999999997
20
-206.90600000000003
10
-424.14179999999999
20
-206.86170000000001
10
-423.91250000000002
20
-206.78049999999999
10
-423.69879999999995
20
-206.6644
10
-423.50579999999991
20
-206.5164
10
-423.33839999999998
20
-206.3399
10
-423.20060000000001
20
-206.13950000000003
10
-423.09590000000003
20
-205.91999999999999
10
-423.02689999999996
20
-205.68680000000001
10
-422.99509999999998
20
-205.44560000000004
10
-423.00149999999996
20
-205.20250000000004
10
-423.04579999999999
20
-204.9633
10
-423.12700000000001
20
-204.73410000000001
10
-423.24299999999994
20
-204.52030000000002
10
-423.39109999999999
20
-204.32729999999998
10
-423.5675
20
-204.15989999999999
10
-423.76799999999997
20
-204.0222
10
-423.98750000000001
20
-203.91739999999999
10
-424.22069999999997
20
-203.8484
10
-424.46190000000001
20
-203.81659999999999
10
-424.70500000000004
20
-203.82300000000001
10
-424.94410000000005
20
-203.8673
10
-425.17339999999996
20
-203.94849999999997
10
-425.38720000000001
20
-204.06460000000004
10
-425.58009999999996
20
-204.21260000000004
10
-425.74759999999998
20
-204.38909999999998
10
-425.88529999999997
20
-204.58950000000002
10
-425.98999999999995
20
-204.80899999999997
10
-426.05909999999994
20
-205.04220000000004
0
LWPOLYLINE
5
106
100
AcDbEntity
8
0
100
AcDbPolyline
90
58
70
1
43
0.0
10
-432.03219999999999
20
-204.97199999999998
10
-431.87919999999997
20
-203.80520000000004
10
-431.54519999999997
20
-202.67670000000004
10
-431.03819999999996
20
-201.61450000000002
10
-430.37120000000004
20
-200.6446
10
-429.56119999999999
20
-199.79089999999999
10
-428.62779999999998
20
-199.0745
10
-427.59349999999995
20
-198.5129
10
-426.48410000000001
20
-198.12010000000001
10
-425.32689999999997
20
-197.90559999999999
10
-424.15049999999997
20
-197.87480000000002
10
-422.98359999999997
20
-198.02840000000003
10
-421.85519999999997
20
-198.36259999999999
10
-420.79299999999995
20
-198.86930000000001
10
-361.91159999999996
20
-232.86450000000002
10
-328.9212
20
-232.86450000000002
10
-327.74793999999997
20
-232.95680000000002
10
-326.60356999999999
20
-233.23160000000001
10
-325.51626999999996
20
-233.68200000000002
10
-324.51280999999994
20
-234.29689999999999
10
-323.61789999999996
20
-235.06120000000004
10
-322.85356999999999
20
-235.95609999999999
10
-322.23864999999995
20
-236.95959999999999
10
-321.78827999999999
20
-238.04689999999999
10
-321.51353999999998
20
-239.19119999999998
10
-321.4212
20
-240.36450000000002
10
-321.51353999999998
20
-241.5378
10
-321.78827999999999
20
-242.68209999999999
10
-322.23864999999995
20
-243.76940000000002
10
-322.85356999999999
20
-244.77289999999999
10
-323.61789999999996
20
-245.6678
10
-324.51280999999994
20
-246.43209999999999
10
-325.51626999999996
20
-247.04700000000003
10
-326.60356999999999
20
-247.49740000000003
10
-327.74793999999997
20
-247.7722
10
-328.9212
20
-247.86450000000002
10
-363.9212
20
-247.86450000000002
10
-364.11719999999997
20
-247.84909999999999
10
-364.31370000000004
20
-247.85420000000002
10
-364.70299999999997
20
-247.803
10
-365.09450000000004
20
-247.7722
10
-365.28559999999999
20
-247.72629999999998
10
-365.48049999999995
20
-247.70060000000001
10
-365.85699999999997
20
-247.5891
10
-366.23879999999997
20
-247.49740000000003
10
-366.42049999999995
20
-247.42220000000003
10
-366.60899999999998
20
-247.3664
10
-366.96339999999998
20
-247.19730000000001
10
-367.32609999999994
20
-247.04700000000003
10
-367.49369999999999
20
-246.9443
10
-367.6712
20
-246.8597
10
-428.29299999999995
20
-211.8597
10
-429.26319999999998
20
-211.19309999999999
10
-430.11619999999999
20
-210.38299999999998
10
-430.83320000000003
20
-209.44929999999999
10
-431.39420000000001
20
-208.41499999999999
10
-431.78719999999998
20
-207.3056
10
-432.00220000000002
20
-206.14849999999996
0
LWPOLYLINE
5
107
100
AcDbEntity
8
0
100
AcDbPolyline
90
40
70
1
43
0.0
10
-330.47120000000001
20
-300.36450000000002
10
-330.45211999999998
20
-300.60700000000003
10
-330.39533999999998
20
-300.84350000000001
10
-330.30225999999999
20
-301.06820000000005
10
-330.17517999999995
20
-301.27560000000005
10
-330.01720999999998
20
-301.46050000000002
10
-329.83226599999995
20
-301.61850000000004
10
-329.62488500000001
20
-301.74559999999997
10
-329.40017499999999
20
-301.83860000000004
10
-329.16367299999996
20
-301.8954
10
-328.9212
20
-301.91450000000003
10
-328.67872699999998
20
-301.8954
10
-328.44222500000001
20
-301.83860000000004
10
-328.21751499999999
20
-301.74559999999997
10
-328.01013399999994
20
-301.61850000000004
10
-327.82519000000002
20
-301.46050000000002
10
-327.66722000000004
20
-301.27560000000005
10
-327.54013999999995
20
-301.06820000000005
10
-327.44706000000002
20
-300.84350000000001
10
-327.39027999999996
20
-300.60700000000003
10
-327.37119999999999
20
-300.36450000000002
10
-327.39027999999996
20
-300.12200000000001
10
-327.44706000000002
20
-299.88549999999998
10
-327.54013999999995
20
-299.66079999999999
10
-327.66722000000004
20
-299.45339999999999
10
-327.82519000000002
20
-299.26850000000002
10
-328.01013399999994
20
-299.1105
10
-328.21751499999999
20
-298.98340000000002
10
-328.44222500000001
20
-298.8904
10
-328.67872699999998
20
-298.83360000000005
10
-328.9212
20
-298.81450000000001
10
-329.16367299999996
20
-298.83360000000005
10
-329.40017499999999
20
-298.8904
10
-329.62488500000001
20
-298.98340000000002
10
-329.83226599999995
20
-299.1105
10
-330.01720999999998
20
-299.26850000000002
10
-330.17517999999995
20
-299.45339999999999
10
-330.30225999999999
20
-299.66079999999999
10
-330.39533999999998
20
-299.88549999999998
10
-330.45211999999998
20
-300.12200000000001
0
LWPOLYLINE
5
108
100
AcDbEntity
8
0
100
AcDbPolyline
90
80
70
1
43
0.0
10
-365.46799999999996
20
-300.40500000000003
10
-365.45850000000002
20
-300.52610000000004
10
-365.44259999999997
20
-300.6465
10
-365.41429999999997
20
-300.76460000000003
10
-365.37979999999999
20
-300.88100000000003
10
-365.33330000000001
20
-300.9932
10
-365.28099999999995
20
-301.1028
10
-365.2176
20
-301.20640000000003
10
-365.14879999999999
20
-301.30650000000003
10
-365.06989999999996
20
-301.39879999999999
10
-364.98629999999997
20
-301.48689999999999
10
-364.89399999999995
20
-301.56580000000002
10
-364.79759999999999
20
-301.6397
10
-364.69409999999993
20
-301.70319999999998
10
-364.58729999999997
20
-301.7611
10
-364.47519999999997
20
-301.80760000000004
10
-364.36070000000001
20
-301.84810000000004
10
-364.24259999999998
20
-301.87650000000002
10
-364.12319999999994
20
-301.89860000000004
10
-364.00210000000004
20
-301.90810000000005
10
-363.88069999999999
20
-301.91129999999998
10
-363.75959999999998
20
-301.90180000000004
10
-363.63920000000002
20
-301.88589999999999
10
-363.52109999999993
20
-301.85760000000005
10
-363.40469999999993
20
-301.82310000000001
10
-363.29249999999996
20
-301.77660000000003
10
-363.18289999999996
20
-301.72430000000003
10
-363.07929999999999
20
-301.66090000000003
10
-362.97919999999999
20
-301.59210000000002
10
-362.88689999999997
20
-301.51320000000004
10
-362.79879999999997
20
-301.42960000000005
10
-362.71989999999994
20
-301.33730000000003
10
-362.64600000000002
20
-301.24090000000001
10
-362.58249999999998
20
-301.13740000000001
10
-362.52459999999996
20
-301.03060000000005
10
-362.47810000000004
20
-300.91849999999999
10
-362.43759999999997
20
-300.80400000000003
10
-362.40919999999994
20
-300.6859
10
-362.38709999999998
20
-300.56650000000002
10
-362.37759999999992
20
-300.44540000000001
10
-362.37439999999998
20
-300.32400000000001
10
-362.38389999999993
20
-300.2029
10
-362.39979999999997
20
-300.08249999999998
10
-362.42809999999997
20
-299.96450000000004
10
-362.46260000000001
20
-299.84800000000001
10
-362.50909999999999
20
-299.73580000000004
10
-362.56139999999994
20
-299.62620000000004
10
-362.62479999999994
20
-299.52260000000001
10
-362.6936
20
-299.42250000000001
10
-362.77249999999992
20
-299.33020000000005
10
-362.85609999999997
20
-299.24210000000005
10
-362.94839999999999
20
-299.16320000000002
10
-363.04480000000001
20
-299.08930000000004
10
-363.14830000000001
20
-299.0258
10
-363.25509999999997
20
-298.96790000000004
10
-363.36720000000003
20
-298.92140000000001
10
-363.48169999999993
20
-298.8809
10
-363.59980000000002
20
-298.85250000000002
10
-363.71919999999994
20
-298.8304
10
-363.84029999999996
20
-298.82089999999999
10
-363.96169999999995
20
-298.81770000000006
10
-364.08279999999996
20
-298.8272
10
-364.20319999999998
20
-298.84310000000005
10
-364.32130000000001
20
-298.87139999999999
10
-364.43770000000001
20
-298.90590000000003
10
-364.54989999999998
20
-298.95240000000001
10
-364.65949999999998
20
-299.00470000000001
10
-364.76310000000001
20
-299.06810000000002
10
-364.86320000000001
20
-299.13690000000003
10
-364.95549999999992
20
-299.2158
10
-365.04359999999997
20
-299.29939999999999
10
-365.12249999999995
20
-299.39170000000001
10
-365.19639999999993
20
-299.48810000000003
10
-365.25990000000002
20
-299.59160000000003
10
-365.31779999999998
20
-299.69830000000002
10
-365.36429999999996
20
-299.81060000000002
10
-365.40479999999997
20
-299.92500000000001
10
-365.43319999999994
20
-300.04309999999998
10
-365.45529999999997
20
-300.16250000000002
10
-365.46479999999997
20
-300.28360000000004
0
LWPOLYLINE
5
109
100
AcDbEntity
8
0
100
AcDbPolyline
90
40
70
1
43
0.0
10
-426.09089999999992
20
-335.44560000000001
10
-426.05909999999994
20
-335.68680000000001
10
-425.98999999999995
20
-335.91999999999996
10
-425.88529999999997
20
-336.1395
10
-425.74759999999998
20
-336.33989999999994
10
-425.58009999999996
20
-336.51639999999998
10
-425.38720000000001
20
-336.6644
10
-425.17339999999996
20
-336.78049999999996
10
-424.94410000000005
20
-336.86170000000004
10
-424.70500000000004
20
-336.90600000000006
10
-424.46190000000001
20
-336.91239999999999
10
-424.22069999999997
20
-336.88060000000002
10
-423.98750000000001
20
-336.81160000000006
10
-423.76799999999997
20
-336.70680000000004
10
-423.5675
20
-336.56910000000005
10
-423.39109999999999
20
-336.40170000000001
10
-423.24299999999994
20
-336.20870000000002
10
-423.12700000000001
20
-335.99490000000003
10
-423.04579999999999
20
-335.76570000000004
10
-423.00149999999996
20
-335.5265
10
-422.99509999999998
20
-335.28340000000003
10
-423.02689999999996
20
-335.04220000000004
10
-423.09590000000003
20
-334.80900000000008
10
-423.20060000000001
20
-334.58950000000004
10
-423.33839999999998
20
-334.38909999999998
10
-423.50579999999991
20
-334.21260000000007
10
-423.69879999999995
20
-334.06460000000004
10
-423.91250000000002
20
-333.94849999999997
10
-424.14179999999999
20
-333.8673
10
-424.38099999999997
20
-333.82299999999998
10
-424.6241
20
-333.81660000000005
10
-424.86519999999996
20
-333.84840000000003
10
-425.09839999999997
20
-333.91750000000002
10
-425.31799999999998
20
-334.0222
10
-425.51839999999999
20
-334.15989999999999
10
-425.69490000000002
20
-334.32729999999998
10
-425.84289999999999
20
-334.52030000000002
10
-425.959
20
-334.73410000000001
10
-426.04019999999997
20
-334.9633
10
-426.08449999999999
20
-335.20250000000004
0
LWPOLYLINE
5
110
100
AcDbEntity
8
0
100
AcDbPolyline
90
58
70
1
43
0.0
10
-432.03219999999999
20
-335.75699999999995
10
-432.00220000000002
20
-334.58050000000003
10
-431.78719999999998
20
-333.42340000000002
10
-431.39420000000001
20
-332.31400000000002
10
-430.83320000000003
20
-331.27970000000005
10
-430.11619999999999
20
-330.346
10
-429.26319999999998
20
-329.53589999999997
10
-428.29299999999995
20
-328.86930000000001
10
-367.6712
20
-293.86930000000001
10
-367.49379999999996
20
-293.78469999999999
10
-367.32609999999994
20
-293.68190000000004
10
-366.96339999999998
20
-293.5317
10
-366.60899999999998
20
-293.36260000000004
10
-366.42049999999995
20
-293.30680000000001
10
-366.23879999999997
20
-293.23160000000001
10
-365.85699999999997
20
-293.13990000000001
10
-365.48049999999995
20
-293.02840000000003
10
-365.28559999999999
20
-293.0027
10
-365.09450000000004
20
-292.95679999999999
10
-364.70299999999997
20
-292.92599999999999
10
-364.31370000000004
20
-292.87480000000005
10
-364.11719999999997
20
-292.87990000000002
10
-363.9212
20
-292.86450000000002
10
-328.9212
20
-292.86450000000002
10
-327.74793999999997
20
-292.95679999999999
10
-326.60356999999999
20
-293.23160000000001
10
-325.51626999999996
20
-293.68200000000002
10
-324.51280999999994
20
-294.29689999999999
10
-323.61789999999996
20
-295.06120000000004
10
-322.85356999999999
20
-295.95609999999999
10
-322.23864999999995
20
-296.95960000000002
10
-321.78827999999999
20
-298.04689999999999
10
-321.51353999999998
20
-299.19119999999998
10
-321.4212
20
-300.36450000000002
10
-321.51353999999998
20
-301.5378
10
-321.78827999999999
20
-302.68209999999999
10
-322.23864999999995
20
-303.76940000000002
10
-322.85356999999999
20
-304.77289999999999
10
-323.61789999999996
20
-305.6678
10
-324.51280999999994
20
-306.43209999999999
10
-325.51626999999996
20
-307.04700000000003
10
-326.60356999999999
20
-307.49740000000003
10
-327.74793999999997
20
-307.7722
10
-328.9212
20
-307.86450000000002
10
-361.91159999999996
20
-307.86450000000002
10
-420.79299999999995
20
-341.85969999999998
10
-421.85519999999997
20
-342.3664
10
-422.98359999999997
20
-342.70060000000001
10
-424.15049999999997
20
-342.85419999999999
10
-425.32689999999997
20
-342.82340000000005
10
-426.48410000000001
20
-342.60890000000006
10
-427.59349999999995
20
-342.21609999999998
10
-428.62779999999998
20
-341.65449999999998
10
-429.56119999999999
20
-340.93810000000008
10
-430.37120000000004
20
-340.08440000000002
10
-431.03819999999996
20
-339.11450000000002
10
-431.54519999999997
20
-338.0523
10
-431.87919999999997
20
-336.92380000000003
0
LWPOLYLINE
5
111
100
AcDbEntity
8
0
100
AcDbPolyline
90
42
70
1
43
0.0
10
-396.32889999999998
20
-261.03775999999999
10
-396.4212
20
-259.86450000000002
10
-396.32889999999998
20
-258.69120000000004
10
-396.05410000000001
20
-257.54689999999999
10
-395.6037
20
-256.45960000000002
10
-394.98879999999997
20
-255.45609999999999
10
-394.22449999999998
20
-254.56120000000001
10
-393.32960000000003
20
-253.79689999999999
10
-392.32609999999994
20
-253.18200000000002
10
-391.23879999999997
20
-252.73160000000001
10
-390.09450000000004
20
-252.45679999999999
10
-388.9212
20
-252.36450000000002
10
-328.9212
20
-252.36450000000002
10
-327.74793999999997
20
-252.45679999999999
10
-326.60356999999999
20
-252.73160000000001
10
-325.51626999999996
20
-253.18200000000002
10
-324.51280999999994
20
-253.79689999999999
10
-323.61789999999996
20
-254.56120000000001
10
-322.85356999999999
20
-255.45609999999999
10
-322.23864999999995
20
-256.45960000000002
10
-321.78827999999999
20
-257.54689999999999
10
-321.51353999999998
20
-258.69120000000004
10
-321.4212
20
-259.86450000000002
10
-321.51353999999998
20
-261.03775999999999
10
-321.78827999999999
20
-262.18213000000003
10
-322.23864999999995
20
-263.26943
10
-322.85356999999999
20
-264.27289000000002
10
-323.61789999999996
20
-265.1678
10
-324.51280999999994
20
-265.93213000000003
10
-325.51626999999996
20
-266.54705000000001
10
-326.60356999999999
20
-266.99742000000003
10
-327.74793999999997
20
-267.27216000000004
10
-328.9212
20
-267.36450000000002
10
-388.9212
20
-267.36450000000002
10
-390.09450000000004
20
-267.27216000000004
10
-391.23879999999997
20
-266.99742000000003
10
-392.32609999999994
20
-266.54705000000001
10
-393.32960000000003
20
-265.93213000000003
10
-394.22449999999998
20
-265.1678
10
-394.98879999999997
20
-264.27289000000002
10
-395.6037
20
-263.26943
10
-396.05410000000001
20
-262.18213000000003
0
LWPOLYLINE
5
112
100
AcDbEntity
8
0
100
AcDbPolyline
90
40
70
1
43
0.0
10
-390.45209999999997
20
-259.62200000000001
10
-390.47120000000001
20
-259.86450000000002
10
-390.45209999999997
20
-260.10699999999997
10
-390.39530000000002
20
-260.34350000000001
10
-390.30229999999995
20
-260.56817999999998
10
-390.17519999999996
20
-260.77557000000002
10
-390.0172
20
-260.96051
10
-389.83229999999998
20
-261.11848000000003
10
-389.62489999999997
20
-261.24556000000001
10
-389.40019999999998
20
-261.33864000000005
10
-389.16370000000001
20
-261.39542
10
-388.9212
20
-261.41450000000003
10
-388.67869999999994
20
-261.39542
10
-388.44220000000001
20
-261.33864000000005
10
-388.21749999999997
20
-261.24556000000001
10
-388.01009999999997
20
-261.11848000000003
10
-387.8252
20
-260.96051
10
-387.66719999999998
20
-260.77557000000002
10
-387.54009999999994
20
-260.56817999999998
10
-387.44709999999998
20
-260.34350000000001
10
-387.39030000000002
20
-260.10699999999997
10
-387.37119999999999
20
-259.86450000000002
10
-387.39030000000002
20
-259.62200000000001
10
-387.44709999999998
20
-259.38549999999998
10
-387.54009999999994
20
-259.16079999999999
10
-387.66719999999998
20
-258.95339999999999
10
-387.8252
20
-258.76850000000002
10
-388.01009999999997
20
-258.6105
10
-388.21749999999997
20
-258.48340000000002
10
-388.44220000000001
20
-258.3904
10
-388.67869999999994
20
-258.33359999999999
10
-388.9212
20
-258.31450000000001
10
-389.16370000000001
20
-258.33359999999999
10
-389.40019999999998
20
-258.3904
10
-389.62489999999997
20
-258.48340000000002
10
-389.83229999999998
20
-258.6105
10
-390.0172
20
-258.76850000000002
10
-390.17519999999996
20
-258.95339999999999
10
-390.30229999999995
20
-259.16079999999999
10
-390.39530000000002
20
-259.38549999999998
0
LWPOLYLINE
5
113
100
AcDbEntity
8
0
100
AcDbPolyline
90
40
70
1
43
0.0
10
-330.45211999999998
20
-259.62200000000001
10
-330.47120000000001
20
-259.86450000000002
10
-330.45211999999998
20
-260.10699999999997
10
-330.39533999999998
20
-260.34350000000001
10
-330.30225999999999
20
-260.56817999999998
10
-330.17517999999995
20
-260.77557000000002
10
-330.01720999999998
20
-260.96051
10
-329.83226599999995
20
-261.11848000000003
10
-329.62488500000001
20
-261.24556000000001
10
-329.40017499999999
20
-261.33864000000005
10
-329.16367299999996
20
-261.39542
10
-328.9212
20
-261.41450000000003
10
-328.67872699999998
20
-261.39542
10
-328.44222500000001
20
-261.33864000000005
10
-328.21751499999999
20
-261.24556000000001
10
-328.01013399999994
20
-261.11848000000003
10
-327.82519000000002
20
-260.96051
10
-327.66722000000004
20
-260.77557000000002
10
-327.54013999999995
20
-260.56817999999998
10
-327.44706000000002
20
-260.34350000000001
10
-327.39027999999996
20
-260.10699999999997
10
-327.37119999999999
20
-259.86450000000002
10
-327.39027999999996
20
-259.62200000000001
10
-327.44706000000002
20
-259.38549999999998
10
-327.54013999999995
20
-259.16079999999999
10
-327.66722000000004
20
-258.95339999999999
10
-327.82519000000002
20
-258.76850000000002
10
-328.01013399999994
20
-258.6105
10
-328.21751499999999
20
-258.48340000000002
10
-328.44222500000001
20
-258.3904
10
-328.67872699999998
20
-258.33359999999999
10
-328.9212
20
-258.31450000000001
10
-329.16367299999996
20
-258.33359999999999
10
-329.40017499999999
20
-258.3904
10
-329.62488500000001
20
-258.48340000000002
10
-329.83226599999995
20
-258.6105
10
-330.01720999999998
20
-258.76850000000002
10
-330.17517999999995
20
-258.95339999999999
10
-330.30225999999999
20
-259.16079999999999
10
-330.39533999999998
20
-259.38549999999998
0
ENDSEC
0
SECTION
2
OBJECTS
0
DICTIONARY
5
C
100
AcDbDictionary
3
ACAD_GROUP
350
D
3
ACAD_MLINESTYLE
350
17
0
DICTIONARY
5
D
100
AcDbDictionary
0
DICTIONARY
5
1A
330
C
100
AcDbDictionary
0
DICTIONARY
5
17
100
AcDbDictionary
0
ENDSEC
0
EOF
