0
SECTION
2
HEADER
9
$INSUNITS
70
4
9
$ACADVER
1
AC1014
9
$HANDSEED
5
FFFF
0
ENDSEC
0
SECTION
2
TABLES
0
TABLE
2
VPORT
5
8
100
AcDbSymbolTable
0
ENDTAB
0
TABLE
2
LTYPE
5
5
100
AcDbSymbolTable
0
LTYPE
5
14
100
AcDbSymbolTableRecord
100
AcDbLinetypeTableRecord
2
BYBLOCK
70
0
0
LTYPE
5
15
100
AcDbSymbolTableRecord
100
AcDbLinetypeTableRecord
2
BYLAYER
70
0
0
ENDTAB
0
TABLE
2
LAYER
5
2
100
AcDbSymbolTable
70
2
0
LAYER
5
50
100
AcDbSymbolTableRecord
100
AcDbLayerTableRecord
2
0
70
0
6
CONTINUOUS
0
ENDTAB
0
TABLE
2
STYLE
5
3
100
AcDbSymbolTable
70
1
0
STYLE
5
11
100
AcDbSymbolTableRecord
100
AcDbTextStyleTableRecord
2
STANDARD
70
0
0
ENDTAB
0
TABLE
2
VIEW
5
6
100
AcDbSymbolTable
70
0
0
ENDTAB
0
TABLE
2
UCS
5
7
100
AcDbSymbolTable
70
0
0
ENDTAB
0
TABLE
2
APPID
5
9
100
AcDbSymbolTable
70
2
0
APPID
5
12
100
AcDbSymbolTableRecord
100
AcDbRegAppTableRecord
2
ACAD
70
0
0
ENDTAB
0
TABLE
2
DIMSTYLE
5
A
100
AcDbSymbolTable
70
1
0
ENDTAB
0
TABLE
2
BLOCK_RECORD
5
1
100
AcDbSymbolTable
70
1
0
BLOCK_RECORD
5
1F
100
AcDbSymbolTableRecord
100
AcDbBlockTableRecord
2
*MODEL_SPACE
0
BLOCK_RECORD
5
1B
100
AcDbSymbolTableRecord
100
AcDbBlockTableRecord
2
*PAPER_SPACE
0
ENDTAB
0
ENDSEC
0
SECTION
2
BLOCKS
0
BLOCK
5
20
100
AcDbEntity
100
AcDbBlockBegin
2
*MODEL_SPACE
0
ENDBLK
5
21
100
AcDbEntity
100
AcDbBlockEnd
0
BLOCK
5
1C
100
AcDbEntity
100
AcDbBlockBegin
2
*PAPER_SPACE
0
ENDBLK
5
1D
100
AcDbEntity
100
AcDbBlockEnd
0
ENDSEC
0
SECTION
2
ENTITIES
0
LWPOLYLINE
5
100
100
AcDbEntity
8
0
100
AcDbPolyline
90
40
70
1
43
0.0
10
-244.48149999999998
20
239.81449999999998
10
-244.46249999999998
20
239.57202999999998
10
-244.40570000000002
20
239.33551999999997
10
-244.31259999999997
20
239.11080999999999
10
-244.18549999999999
20
238.90342999999999
10
-244.02749999999997
20
238.71848
10
-243.84259999999998
20
238.56052
10
-243.63519999999997
20
238.43343999999999
10
-243.41049999999998
20
238.34035999999998
10
-243.17399999999998
20
238.28357999999997
10
-242.93149999999997
20
238.26449999999997
10
-242.6891
20
238.28357999999997
10
-242.45259999999999
20
238.34035999999998
10
-242.2278
20
238.43343999999999
10
-242.0205
20
238.56052
10
-241.8355
20
238.71848
10
-241.67759999999998
20
238.90342999999999
10
-241.5505
20
239.11080999999999
10
-241.45740000000001
20
239.33551999999997
10
-241.4006
20
239.57202999999998
10
-241.38149999999999
20
239.81449999999998
10
-241.4006
20
240.05696999999998
10
-241.45740000000001
20
240.29347999999999
10
-241.5505
20
240.51817999999997
10
-241.67759999999998
20
240.72557
10
-241.8355
20
240.91050999999999
10
-242.0205
20
241.06847999999999
10
-242.2278
20
241.19556
10
-242.45259999999999
20
241.28863999999999
10
-242.6891
20
241.34541999999999
10
-242.93149999999997
20
241.36449999999999
10
-243.17399999999998
20
241.34541999999999
10
-243.41049999999998
20
241.28863999999999
10
-243.63519999999997
20
241.19556
10
-243.84259999999998
20
241.06847999999999
10
-244.02749999999997
20
240.91050999999999
10
-244.18549999999999
20
240.72557
10
-244.31259999999997
20
240.51817999999997
10
-244.40570000000002
20
240.29347999999999
10
-244.46249999999998
20
240.05696999999998
0
LWPOLYLINE
5
101
100
AcDbEntity
8
0
100
AcDbPolyline
90
40
70
1
43
0.0
10
-244.48149999999998
20
229.81449999999998
10
-244.46249999999998
20
229.57202999999998
10
-244.40570000000002
20
229.33551999999997
10
-244.31259999999997
20
229.11081999999999
10
-244.18549999999999
20
228.90342999999999
10
-244.02749999999997
20
228.71848999999997
10
-243.84259999999998
20
228.56052
10
-243.63519999999997
20
228.43343999999999
10
-243.41049999999998
20
228.34035999999998
10
-243.17399999999998
20
228.28357999999997
10
-242.93149999999997
20
228.26449999999997
10
-242.6891
20
228.28357999999997
10
-242.45259999999999
20
228.34035999999998
10
-242.2278
20
228.43343999999999
10
-242.0205
20
228.56052
10
-241.8355
20
228.71848999999997
10
-241.67759999999998
20
228.90342999999999
10
-241.5505
20
229.11081999999999
10
-241.45740000000001
20
229.33551999999997
10
-241.4006
20
229.57202999999998
10
-241.38149999999999
20
229.81449999999998
10
-241.4006
20
230.05696999999998
10
-241.45740000000001
20
230.29347999999999
10
-241.5505
20
230.51818999999998
10
-241.67759999999998
20
230.72557
10
-241.8355
20
230.91051999999996
10
-242.0205
20
231.06847999999999
10
-242.2278
20
231.19556
10
-242.45259999999999
20
231.28863999999999
10
-242.6891
20
231.34541999999999
10
-242.93149999999997
20
231.36449999999999
10
-243.17399999999998
20
231.34541999999999
10
-243.41049999999998
20
231.28863999999999
10
-243.63519999999997
20
231.19556
10
-243.84259999999998
20
231.06847999999999
10
-244.02749999999997
20
230.91051999999996
10
-244.18549999999999
20
230.72557
10
-244.31259999999997
20
230.51818999999998
10
-244.40570000000002
20
230.29347999999999
10
-244.46249999999998
20
230.05696999999998
0
LWPOLYLINE
5
102
100
AcDbEntity
8
0
100
AcDbPolyline
90
40
70
1
43
0.0
10
-266.14819999999997
20
279.65889999999996
10
-266.12912
20
279.41649999999998
10
-266.07234
20
279.18000000000001
10
-265.97926000000001
20
278.95529999999997
10
-265.85217999999998
20
278.74789999999996
10
-265.69421
20
278.56289999999996
10
-265.50926599999997
20
278.40499999999997
10
-265.30188499999997
20
278.27789999999999
10
-265.07717500000001
20
278.1848
10
-264.84067299999998
20
278.12799999999999
10
-264.59820000000002
20
278.10890000000001
10
-264.355727
20
278.12799999999999
10
-264.11922499999997
20
278.1848
10
-263.89451500000001
20
278.27789999999999
10
-263.68713399999996
20
278.40499999999997
10
-263.50218999999998
20
278.56289999999996
10
-263.34422000000001
20
278.74789999999996
10
-263.21713999999997
20
278.95529999999997
10
-263.12405999999999
20
279.18000000000001
10
-263.06727999999998
20
279.41649999999998
10
-263.04820000000001
20
279.65889999999996
10
-263.06727999999998
20
279.90140000000002
10
-263.12405999999999
20
280.1379
10
-263.21713999999997
20
280.36259999999999
10
-263.34422000000001
20
280.56999999999999
10
-263.50218999999998
20
280.755
10
-263.68713399999996
20
280.91289999999998
10
-263.89451500000001
20
281.03999999999996
10
-264.11922499999997
20
281.13310000000001
10
-264.355727
20
281.18990000000002
10
-264.59820000000002
20
281.20889999999997
10
-264.84067299999998
20
281.18990000000002
10
-265.07717500000001
20
281.13310000000001
10
-265.30188499999997
20
281.03999999999996
10
-265.50926599999997
20
280.91289999999998
10
-265.69421
20
280.755
10
-265.85217999999998
20
280.56999999999999
10
-265.97926000000001
20
280.36259999999999
10
-266.07234
20
280.1379
10
-266.12912
20
279.90140000000002
0
LWPOLYLINE
5
103
100
AcDbEntity
8
0
100
AcDbPolyline
90
40
70
1
43
0.0
10
-266.14819999999997
20
223.60339999999997
10
-266.12912
20
223.36089999999999
10
-266.07234
20
223.12439999999998
10
-265.97926000000001
20
222.89969999999997
10
-265.85217999999998
20
222.69229999999999
10
-265.69421
20
222.50740000000002
10
-265.50926599999997
20
222.34939999999997
10
-265.30188499999997
20
222.22229999999999
10
-265.07717500000001
20
222.1293
10
-264.84067299999998
20
222.07249999999999
10
-264.59820000000002
20
222.05340000000001
10
-264.355727
20
222.07249999999999
10
-264.11922499999997
20
222.1293
10
-263.89451500000001
20
222.22229999999999
10
-263.68713399999996
20
222.34939999999997
10
-263.50218999999998
20
222.50740000000002
10
-263.34422000000001
20
222.69229999999999
10
-263.21713999999997
20
222.89969999999997
10
-263.12405999999999
20
223.12439999999998
10
-263.06727999999998
20
223.36089999999999
10
-263.04820000000001
20
223.60339999999997
10
-263.06727999999998
20
223.8459
10
-263.12405999999999
20
224.08240000000001
10
-263.21713999999997
20
224.30709999999999
10
-263.34422000000001
20
224.51449999999997
10
-263.50218999999998
20
224.69939999999997
10
-263.68713399999996
20
224.85737
10
-263.89451500000001
20
224.98444999999998
10
-264.11922499999997
20
225.07752999999997
10
-264.355727
20
225.13430999999997
10
-264.59820000000002
20
225.15338999999997
10
-264.84067299999998
20
225.13430999999997
10
-265.07717500000001
20
225.07752999999997
10
-265.30188499999997
20
224.98444999999998
10
-265.50926599999997
20
224.85737
10
-265.69421
20
224.69939999999997
10
-265.85217999999998
20
224.51449999999997
10
-265.97926000000001
20
224.30709999999999
10
-266.07234
20
224.08240000000001
10
-266.12912
20
223.8459
0
LWPOLYLINE
5
104
100
AcDbEntity
8
0
100
AcDbPolyline
90
40
70
1
43
0.0
10
-266.14819999999997
20
189.9701
10
-266.12912
20
189.72759999999997
10
-266.07234
20
189.49109999999996
10
-265.97926000000001
20
189.26639999999998
10
-265.85217999999998
20
189.059
10
-265.69421
20
188.874
10
-265.50926599999997
20
188.71610000000001
10
-265.30188499999997
20
188.589
10
-265.07717500000001
20
188.49590000000001
10
-264.84067299999998
20
188.43909999999997
10
-264.59820000000002
20
188.42009999999999
10
-264.355727
20
188.43909999999997
10
-264.11922499999997
20
188.49590000000001
10
-263.89451500000001
20
188.589
10
-263.68713399999996
20
188.71610000000001
10
-263.50218999999998
20
188.874
10
-263.34422000000001
20
189.059
10
-263.21713999999997
20
189.26639999999998
10
-263.12405999999999
20
189.49109999999996
10
-263.06727999999998
20
189.72759999999997
10
-263.04820000000001
20
189.9701
10
-263.06727999999998
20
190.21249999999998
10
-263.12405999999999
20
190.44899999999998
10
-263.21713999999997
20
190.67369999999997
10
-263.34422000000001
20
190.8811
10
-263.50218999999998
20
191.06610000000001
10
-263.68713399999996
20
191.22399999999999
10
-263.89451500000001
20
191.35109999999997
10
-264.11922499999997
20
191.44419999999997
10
-264.355727
20
191.50099999999998
10
-264.59820000000002
20
191.52009999999996
10
-264.84067299999998
20
191.50099999999998
10
-265.07717500000001
20
191.44419999999997
10
-265.30188499999997
20
191.35109999999997
10
-265.50926599999997
20
191.22399999999999
10
-265.69421
20
191.06610000000001
10
-265.85217999999998
20
190.8811
10
-265.97926000000001
20
190.67369999999997
10
-266.07234
20
190.44899999999998
10
-266.12912
20
190.21249999999998
0
LWPOLYLINE
5
105
100
AcDbEntity
8
0
100
AcDbPolyline
90
48
70
1
43
0.0
10
-270.59819999999996
20
246.02559999999997
10
-270.52433000000002
20
245.08699999999999
10
-270.30453999999997
20
244.17151000000001
10
-269.94423999999998
20
243.30167
10
-269.45229999999998
20
242.49889999999999
10
-268.84083999999996
20
241.78297000000001
10
-268.12491
20
241.17151000000001
10
-267.32213999999999
20
240.67957000000001
10
-266.45229999999998
20
240.31926999999999
10
-265.53680499999996
20
240.09947999999997
10
-264.59820000000002
20
240.02561
10
-263.65959499999997
20
240.09947999999997
10
-262.7441
20
240.31926999999999
10
-261.87425999999999
20
240.67957000000001
10
-261.07148999999998
20
241.17151000000001
10
-260.35555999999997
20
241.78297000000001
10
-259.7441
20
242.49889999999999
10
-259.25216
20
243.30167
10
-258.89186000000001
20
244.17151000000001
10
-258.67207000000002
20
245.08699999999999
10
-258.59820000000002
20
246.02559999999997
10
-258.67207000000002
20
246.96420000000001
10
-258.89186000000001
20
247.87969999999999
10
-259.25216
20
248.74959999999999
10
-259.38406999999995
20
248.9648
10
-259.63004000000001
20
249.36619999999999
10
-259.7441
20
249.5523
10
-260.35555999999997
20
250.26830000000001
10
-260.35906
20
250.27119999999999
10
-260.71703000000002
20
250.57689999999997
10
-261.07148999999998
20
250.87969999999999
10
-261.87425999999999
20
251.37159999999997
10
-261.90939000000003
20
251.3862
10
-262.34431000000001
20
251.56630000000001
10
-262.7441
20
251.7319
10
-263.65959499999997
20
251.95169999999996
10
-264.039986
20
251.98159999999999
10
-264.5092889
20
252.01859999999999
10
-264.59820000000002
20
252.0256
10
-265.53680499999996
20
251.95169999999996
10
-266.45229999999998
20
251.7319
10
-267.32213999999999
20
251.37159999999997
10
-268.12491
20
250.87969999999999
10
-268.84083999999996
20
250.26830000000001
10
-269.45229999999998
20
249.5523
10
-269.94423999999998
20
248.74959999999999
10
-270.30453999999997
20
247.87969999999999
10
-270.52433000000002
20
246.96420000000001
0
LWPOLYLINE
5
106
100
AcDbEntity
8
0
100
AcDbPolyline
90
40
70
1
43
0.0
10
-296.45910000000003
20
262.15889999999996
10
-296.44
20
261.91649999999998
10
-296.38319999999999
20
261.68000000000001
10
-296.2901
20
261.45529999999997
10
-296.16309999999999
20
261.24789999999996
10
-296.00509999999997
20
261.06289999999996
10
-295.8202
20
260.90499999999997
10
-295.61279999999999
20
260.77789999999999
10
-295.38810000000001
20
260.6848
10
-295.15159999999997
20
260.62799999999999
10
-294.90909999999997
20
260.60890000000001
10
-294.66659999999996
20
260.62799999999999
10
-294.43010000000004
20
260.6848
10
-294.2054
20
260.77789999999999
10
-293.99799999999999
20
260.90499999999997
10
-293.81309999999996
20
261.06289999999996
10
-293.6551
20
261.24789999999996
10
-293.52799999999996
20
261.45529999999997
10
-293.435
20
261.68000000000001
10
-293.37819999999999
20
261.91649999999998
10
-293.35910000000001
20
262.15889999999996
10
-293.37819999999999
20
262.40140000000002
10
-293.435
20
262.6379
10
-293.52799999999996
20
262.86259999999999
10
-293.6551
20
263.06999999999999
10
-293.81309999999996
20
263.255
10
-293.99799999999999
20
263.41290000000004
10
-294.2054
20
263.53999999999996
10
-294.43010000000004
20
263.63310000000001
10
-294.66659999999996
20
263.68990000000002
10
-294.90909999999997
20
263.70889999999997
10
-295.15159999999997
20
263.68990000000002
10
-295.38810000000001
20
263.63310000000001
10
-295.61279999999999
20
263.53999999999996
10
-295.8202
20
263.41290000000004
10
-296.00509999999997
20
263.255
10
-296.16309999999999
20
263.06999999999999
10
-296.2901
20
262.86259999999999
10
-296.38319999999999
20
262.6379
10
-296.44
20
262.40140000000002
0
LWPOLYLINE
5
107
100
AcDbEntity
8
0
100
AcDbPolyline
90
40
70
1
43
0.0
10
-296.45910000000003
20
207.4701
10
-296.44
20
207.22759999999997
10
-296.38319999999999
20
206.99109999999996
10
-296.2901
20
206.76639999999998
10
-296.16309999999999
20
206.559
10
-296.00509999999997
20
206.374
10
-295.8202
20
206.21609999999998
10
-295.61279999999999
20
206.089
10
-295.38810000000001
20
205.99590000000001
10
-295.15159999999997
20
205.93909999999997
10
-294.90909999999997
20
205.92009999999999
10
-294.66659999999996
20
205.93909999999997
10
-294.43010000000004
20
205.99590000000001
10
-294.2054
20
206.089
10
-293.99799999999999
20
206.21609999999998
10
-293.81309999999996
20
206.374
10
-293.6551
20
206.559
10
-293.52799999999996
20
206.76639999999998
10
-293.435
20
206.99109999999996
10
-293.37819999999999
20
207.22759999999997
10
-293.35910000000001
20
207.4701
10
-293.37819999999999
20
207.71249999999998
10
-293.435
20
207.94899999999998
10
-293.52799999999996
20
208.17369999999997
10
-293.6551
20
208.3811
10
-293.81309999999996
20
208.56610000000001
10
-293.99799999999999
20
208.72399999999999
10
-294.2054
20
208.85109999999997
10
-294.43010000000004
20
208.94419999999997
10
-294.66659999999996
20
209.00099999999998
10
-294.90909999999997
20
209.02009999999996
10
-295.15159999999997
20
209.00099999999998
10
-295.38810000000001
20
208.94419999999997
10
-295.61279999999999
20
208.85109999999997
10
-295.8202
20
208.72399999999999
10
-296.00509999999997
20
208.56610000000001
10
-296.16309999999999
20
208.3811
10
-296.2901
20
208.17369999999997
10
-296.38319999999999
20
207.94899999999998
10
-296.44
20
207.71249999999998
0
LWPOLYLINE
5
108
100
AcDbEntity
8
0
100
AcDbPolyline
90
10
70
1
43
0.0
10
-299.90909999999997
20
202.4701
10
-299.90909999999997
20
267.15889999999996
10
-264.59820000000002
20
284.65889999999996
10
-247.93149999999997
20
279.65889999999996
10
-247.93149999999997
20
244.81449999999998
10
-237.93149999999997
20
244.81449999999998
10
-237.93149999999997
20
224.81449999999998
10
-247.93149999999997
20
224.81449999999998
10
-247.93149999999997
20
189.9701
10
-264.59820000000002
20
184.9701
0
ENDSEC
0
SECTION
2
OBJECTS
0
DICTIONARY
5
C
100
AcDbDictionary
3
ACAD_GROUP
350
D
3
ACAD_MLINESTYLE
350
17
0
DICTIONARY
5
D
100
AcDbDictionary
0
DICTIONARY
5
1A
330
C
100
AcDbDictionary
0
DICTIONARY
5
17
100
AcDbDictionary
0
ENDSEC
0
EOF
