0
SECTION
2
HEADER
9
$INSUNITS
70
4
9
$ACADVER
1
AC1014
9
$HANDSEED
5
FFFF
0
ENDSEC
0
SECTION
2
TABLES
0
TABLE
2
VPORT
5
8
100
AcDbSymbolTable
0
ENDTAB
0
TABLE
2
LTYPE
5
5
100
AcDbSymbolTable
0
LTYPE
5
14
100
AcDbSymbolTableRecord
100
AcDbLinetypeTableRecord
2
BYBLOCK
70
0
0
LTYPE
5
15
100
AcDbSymbolTableRecord
100
AcDbLinetypeTableRecord
2
BYLAYER
70
0
0
ENDTAB
0
TABLE
2
LAYER
5
2
100
AcDbSymbolTable
70
2
0
LAYER
5
50
100
AcDbSymbolTableRecord
100
AcDbLayerTableRecord
2
0
70
0
6
CONTINUOUS
0
ENDTAB
0
TABLE
2
STYLE
5
3
100
AcDbSymbolTable
70
1
0
STYLE
5
11
100
AcDbSymbolTableRecord
100
AcDbTextStyleTableRecord
2
STANDARD
70
0
0
ENDTAB
0
TABLE
2
VIEW
5
6
100
AcDbSymbolTable
70
0
0
ENDTAB
0
TABLE
2
UCS
5
7
100
AcDbSymbolTable
70
0
0
ENDTAB
0
TABLE
2
APPID
5
9
100
AcDbSymbolTable
70
2
0
APPID
5
12
100
AcDbSymbolTableRecord
100
AcDbRegAppTableRecord
2
ACAD
70
0
0
ENDTAB
0
TABLE
2
DIMSTYLE
5
A
100
AcDbSymbolTable
70
1
0
ENDTAB
0
TABLE
2
BLOCK_RECORD
5
1
100
AcDbSymbolTable
70
1
0
BLOCK_RECORD
5
1F
100
AcDbSymbolTableRecord
100
AcDbBlockTableRecord
2
*MODEL_SPACE
0
BLOCK_RECORD
5
1B
100
AcDbSymbolTableRecord
100
AcDbBlockTableRecord
2
*PAPER_SPACE
0
ENDTAB
0
ENDSEC
0
SECTION
2
BLOCKS
0
BLOCK
5
20
100
AcDbEntity
100
AcDbBlockBegin
2
*MODEL_SPACE
0
ENDBLK
5
21
100
AcDbEntity
100
AcDbBlockEnd
0
BLOCK
5
1C
100
AcDbEntity
100
AcDbBlockBegin
2
*PAPER_SPACE
0
ENDBLK
5
1D
100
AcDbEntity
100
AcDbBlockEnd
0
ENDSEC
0
SECTION
2
ENTITIES
0
LWPOLYLINE
5
100
100
AcDbEntity
8
0
100
AcDbPolyline
90
40
70
1
43
0.0
10
279.65449999999998
20
206.75579999999999
10
279.67359999999996
20
206.51330000000002
10
279.73040000000003
20
206.27680000000001
10
279.82339999999999
20
206.0521
10
279.95049999999998
20
205.84470000000005
10
280.10849999999999
20
205.65979999999999
10
280.29340000000002
20
205.5018
10
280.50080000000003
20
205.37469999999999
10
280.72550000000001
20
205.28170000000003
10
280.96199999999999
20
205.22490000000002
10
281.2045
20
205.20580000000001
10
281.447
20
205.22490000000002
10
281.68349999999998
20
205.28170000000003
10
281.90819999999997
20
205.37469999999999
10
282.11559999999997
20
205.5018
10
282.3005
20
205.65979999999999
10
282.45850000000002
20
205.84470000000005
10
282.5856
20
206.0521
10
282.67859999999996
20
206.27680000000001
10
282.73540000000003
20
206.51330000000002
10
282.75450000000001
20
206.75579999999999
10
282.73540000000003
20
206.99830000000003
10
282.67859999999996
20
207.23480000000001
10
282.5856
20
207.45949999999999
10
282.45850000000002
20
207.6669
10
282.3005
20
207.8518
10
282.11559999999997
20
208.00980000000004
10
281.90819999999997
20
208.13690000000003
10
281.68349999999998
20
208.22990000000001
10
281.447
20
208.28670000000002
10
281.2045
20
208.3058
10
280.96199999999999
20
208.28670000000002
10
280.72550000000001
20
208.22990000000001
10
280.50080000000003
20
208.13690000000003
10
280.29340000000002
20
208.00980000000004
10
280.10849999999999
20
207.8518
10
279.95049999999998
20
207.6669
10
279.82339999999999
20
207.45949999999999
10
279.73040000000003
20
207.23480000000001
10
279.67359999999996
20
206.99830000000003
0
LWPOLYLINE
5
101
100
AcDbEntity
8
0
100
AcDbPolyline
90
54
70
1
43
0.0
10
279.65449999999998
20
146.75579999999999
10
279.67359999999996
20
146.513327
10
279.70459999999997
20
146.38419400000001
10
279.73040000000003
20
146.276825
10
279.77690000000001
20
146.164469
10
279.82339999999999
20
146.05211499999999
10
279.8811
20
145.957967
10
279.95049999999998
20
145.84473400000002
10
280.10849999999999
20
145.65979000000002
10
280.29340000000002
20
145.50182000000001
10
280.4067
20
145.43243999999999
10
280.50080000000003
20
145.37474
10
280.61320000000001
20
145.32820000000001
10
280.72550000000001
20
145.28166000000002
10
280.8329
20
145.25588999999999
10
280.96199999999999
20
145.22488000000001
10
281.2045
20
145.20580000000001
10
281.447
20
145.22488000000001
10
281.50459999999998
20
145.23872
10
281.68349999999998
20
145.28166000000002
10
281.90819999999997
20
145.37474
10
282.11559999999997
20
145.50182000000001
10
282.3005
20
145.65979000000002
10
282.45850000000002
20
145.84473400000002
10
282.5856
20
146.05211499999999
10
282.67859999999996
20
146.276825
10
282.73540000000003
20
146.513327
10
282.75450000000001
20
146.75579999999999
10
282.73540000000003
20
146.99827300000001
10
282.67859999999996
20
147.23477500000001
10
282.5856
20
147.459485
10
282.45850000000002
20
147.666866
10
282.3005
20
147.85181
10
282.11559999999997
20
148.00978000000001
10
281.90819999999997
20
148.13686000000001
10
281.68349999999998
20
148.22994
10
281.50459999999998
20
148.27287999999999
10
281.447
20
148.28672
10
281.2045
20
148.3058
10
280.96199999999999
20
148.28672
10
280.8329
20
148.25570999999999
10
280.72550000000001
20
148.22994
10
280.61320000000001
20
148.18340000000001
10
280.50080000000003
20
148.13686000000001
10
280.4067
20
148.07916
10
280.29340000000002
20
148.00978000000001
10
280.10849999999999
20
147.85181
10
279.95049999999998
20
147.666866
10
279.8811
20
147.55363300000002
10
279.82339999999999
20
147.459485
10
279.77690000000001
20
147.34713099999999
10
279.73040000000003
20
147.23477500000001
10
279.70459999999997
20
147.12740600000001
10
279.67359999999996
20
146.99827300000001
0
LWPOLYLINE
5
102
100
AcDbEntity
8
0
100
AcDbPolyline
90
445
70
1
43
0.0
10
256.99760000000003
20
143.35623999999999
10
257.62
20
143.93445
10
258.22040000000004
20
144.42783
10
258.791
20
144.84136000000001
10
259.3245
20
145.18064000000001
10
259.81420000000003
20
145.45183
10
260.25409999999999
20
145.66166000000001
10
260.63870000000003
20
145.81726700000002
10
260.9633
20
145.926243
10
261.22409999999996
20
145.99654699999999
10
261.41759999999999
20
146.036404
10
261.46549999999996
20
146.038141
10
261.46549999999996
20
147.47345900000002
10
261.41759999999999
20
147.47519600000001
10
261.22409999999996
20
147.51505299999999
10
260.9633
20
147.58535699999999
10
260.63870000000003
20
147.694333
10
260.25409999999999
20
147.84994
10
259.81420000000003
20
148.05977000000001
10
259.3245
20
148.33096
10
258.791
20
148.67024000000001
10
258.22040000000004
20
149.08376999999999
10
257.62
20
149.57715000000002
10
256.99760000000003
20
150.15536
10
257.13190000000003
20
151.00296
10
257.90250000000003
20
151.36053000000001
10
258.62599999999998
20
151.64423000000002
10
259.29640000000001
20
151.86121
10
259.90859999999998
20
152.01902999999999
10
260.45819999999998
20
152.12563
10
260.94130000000001
20
152.18925999999999
10
261.35519999999997
20
152.21839
10
261.6977
20
152.22172
10
261.9674
20
152.20801
10
262.16369999999995
20
152.18612000000002
10
262.2099
20
152.17294000000001
10
262.65339999999998
20
153.53799000000001
10
262.60829999999999
20
153.55447000000001
10
262.4366
20
153.65217000000001
10
262.21039999999999
20
153.79961
10
261.93529999999998
20
154.00359
10
261.61760000000004
20
154.27044000000001
10
261.26409999999998
20
154.60592
10
260.88209999999998
20
155.01517000000001
10
260.4796
20
155.5027
10
260.06470000000002
20
156.07230000000001
10
259.64620000000002
20
156.72707
10
259.23290000000003
20
157.4693
10
259.6225
20
158.23390000000001
10
260.46589999999998
20
158.33590000000001
10
261.24169999999998
20
158.38210000000001
10
261.94630000000001
20
158.38130000000001
10
262.57729999999998
20
158.34219999999999
10
263.13290000000001
20
158.27379999999999
10
263.6121
20
158.185
10
264.0147
20
158.0848
10
264.3415
20
157.9821
10
264.59370000000001
20
157.88579999999999
10
264.77370000000002
20
157.80430000000001
10
264.81349999999998
20
157.7775
10
265.65719999999999
20
158.93869999999998
10
265.61939999999998
20
158.9683
10
265.48629999999997
20
159.11430000000001
10
265.31669999999997
20
159.3244
10
265.11810000000003
20
159.60339999999999
10
264.89840000000004
20
159.9554
10
264.66579999999999
20
160.3836
10
264.42909999999995
20
160.89089999999999
10
264.19689999999997
20
161.47899999999998
10
263.97839999999997
20
162.1489
10
263.7826
20
162.90089999999998
10
263.6189
20
163.7346
10
264.22570000000002
20
164.34139999999999
10
265.05939999999998
20
164.17770000000002
10
265.81139999999999
20
163.982
10
266.48140000000001
20
163.76339999999999
10
267.06939999999997
20
163.53129999999999
10
267.57670000000002
20
163.29450000000003
10
268.005
20
163.06200000000001
10
268.3569
20
162.84220000000002
10
268.63589999999999
20
162.64359999999999
10
268.846
20
162.47399999999999
10
268.99200000000002
20
162.34090000000003
10
269.02159999999998
20
162.3031
10
270.18279999999999
20
163.14679999999998
10
270.15600000000001
20
163.1866
10
270.0745
20
163.36660000000001
10
269.97820000000002
20
163.61879999999999
10
269.87549999999999
20
163.94560000000001
10
269.77529999999996
20
164.34820000000002
10
269.68650000000002
20
164.82740000000001
10
269.61810000000003
20
165.38299999999998
10
269.57900000000001
20
166.01400000000001
10
269.57819999999998
20
166.71860000000004
10
269.62440000000004
20
167.49439999999998
10
269.72640000000001
20
168.33780000000002
10
270.49099999999999
20
168.72739999999999
10
271.23320000000001
20
168.31410000000002
10
271.88800000000003
20
167.8956
10
272.45760000000001
20
167.48070000000001
10
272.94509999999997
20
167.07820000000001
10
273.3544
20
166.69620000000003
10
273.68990000000002
20
166.34270000000001
10
273.7045
20
166.3253
10
273.7045
20
206.75579999999999
10
273.79680000000002
20
207.92910000000001
10
274.07159999999999
20
209.07340000000002
10
274.52199999999999
20
210.16069999999999
10
275.13690000000003
20
211.16420000000002
10
275.90120000000002
20
212.0591
10
276.79610000000002
20
212.82340000000002
10
277.7996
20
213.4383
10
278.88690000000003
20
213.8887
10
280.03120000000001
20
214.1635
10
281.2045
20
214.25579999999999
10
282.37779999999998
20
214.1635
10
283.52210000000002
20
213.8887
10
284.60939999999999
20
213.4383
10
285.61289999999997
20
212.82340000000002
10
286.50780000000003
20
212.0591
10
287.27210000000002
20
211.16420000000002
10
287.887
20
210.16069999999999
10
288.3374
20
209.07340000000002
10
288.61219999999997
20
207.92910000000001
10
288.7045
20
206.75579999999999
10
288.7045
20
166.3253
10
288.71910000000003
20
166.34270000000001
10
289.05459999999999
20
166.69620000000003
10
289.46390000000002
20
167.07820000000001
10
289.95139999999998
20
167.48070000000001
10
290.52100000000002
20
167.8956
10
291.17579999999998
20
168.31410000000002
10
291.91800000000001
20
168.72739999999999
10
292.68259999999998
20
168.33780000000002
10
292.78460000000001
20
167.49439999999998
10
292.83079999999995
20
166.71860000000004
10
292.83000000000004
20
166.01400000000001
10
292.79090000000002
20
165.38299999999998
10
292.72249999999997
20
164.82740000000001
10
292.63370000000003
20
164.34820000000002
10
292.5335
20
163.94560000000001
10
292.43079999999998
20
163.61879999999999
10
292.33449999999999
20
163.36660000000001
10
292.25299999999999
20
163.1866
10
292.22620000000001
20
163.14679999999998
10
293.38740000000001
20
162.3031
10
293.41699999999997
20
162.34090000000003
10
293.56299999999999
20
162.47399999999999
10
293.7731
20
162.64359999999999
10
294.0521
20
162.84220000000002
10
294.40409999999997
20
163.06190000000001
10
294.83229999999998
20
163.29450000000003
10
295.33960000000002
20
163.53120000000001
10
295.92770000000002
20
163.76339999999999
10
296.5976
20
163.9819
10
297.34960000000001
20
164.17770000000002
10
298.18329999999997
20
164.34139999999999
10
298.7901
20
163.7346
10
298.62639999999999
20
162.90089999999998
10
298.4307
20
162.1489
10
298.21210000000002
20
161.47890000000001
10
297.98000000000002
20
160.89089999999999
10
297.7432
20
160.3836
10
297.51060000000001
20
159.95529999999999
10
297.29089999999997
20
159.60339999999999
10
297.09229999999997
20
159.3244
10
296.92270000000002
20
159.11430000000001
10
296.78960000000001
20
158.9683
10
296.7518
20
158.93869999999998
10
297.59550000000002
20
157.7775
10
297.63529999999997
20
157.80430000000001
10
297.81529999999998
20
157.88579999999999
10
298.0675
20
157.9821
10
298.39429999999999
20
158.0848
10
298.79689999999999
20
158.185
10
299.27610000000004
20
158.27379999999999
10
299.83170000000001
20
158.34219999999999
10
300.46269999999998
20
158.38130000000001
10
301.16730000000001
20
158.38210000000001
10
301.94310000000002
20
158.33590000000001
10
302.78649999999999
20
158.23390000000001
10
303.17610000000002
20
157.4693
10
302.76279999999997
20
156.72707
10
302.34429999999998
20
156.07230000000001
10
301.92939999999999
20
155.5027
10
301.52690000000001
20
155.01517000000001
10
301.14490000000001
20
154.60592
10
300.79140000000001
20
154.27044000000001
10
300.47370000000001
20
154.00359
10
300.1986
20
153.79961
10
299.97239999999999
20
153.65217000000001
10
299.80070000000001
20
153.55447000000001
10
299.75560000000002
20
153.53799000000001
10
300.19909999999999
20
152.17294000000001
10
300.24529999999999
20
152.18612000000002
10
300.44159999999999
20
152.20801
10
300.71129999999999
20
152.22172
10
301.05380000000002
20
152.21839
10
301.46769999999998
20
152.18925999999999
10
301.95080000000002
20
152.12563
10
302.50040000000001
20
152.01902999999999
10
303.11259999999999
20
151.86121
10
303.78300000000002
20
151.64423000000002
10
304.50650000000002
20
151.36053000000001
10
305.27710000000002
20
151.00296
10
305.41139999999996
20
150.15536
10
304.78899999999999
20
149.57715000000002
10
304.18860000000001
20
149.08376999999999
10
303.61799999999999
20
148.67024000000001
10
303.08449999999999
20
148.33096
10
302.59480000000002
20
148.05977000000001
10
302.1549
20
147.84994
10
301.77030000000002
20
147.694333
10
301.44569999999999
20
147.58535699999999
10
301.18490000000003
20
147.51505299999999
10
300.9914
20
147.47519600000001
10
300.94349999999997
20
147.47345900000002
10
300.94349999999997
20
146.038141
10
300.9914
20
146.036404
10
301.18490000000003
20
145.99654699999999
10
301.44569999999999
20
145.926243
10
301.77030000000002
20
145.81726700000002
10
302.1549
20
145.66166000000001
10
302.59480000000002
20
145.45183
10
303.08449999999999
20
145.18064000000001
10
303.61799999999999
20
144.84136000000001
10
304.18860000000001
20
144.42783
10
304.78899999999999
20
143.93445
10
305.41139999999996
20
143.35623999999999
10
305.27710000000002
20
142.50864000000001
10
304.50650000000002
20
142.15107
10
303.78300000000002
20
141.86736999999999
10
303.11259999999999
20
141.65039000000002
10
302.50040000000001
20
141.49257
10
301.95080000000002
20
141.38597000000001
10
301.46769999999998
20
141.32234
10
301.05380000000002
20
141.29321000000002
10
300.71129999999999
20
141.28987999999998
10
300.44159999999999
20
141.30359000000001
10
300.24529999999999
20
141.32548
10
300.19909999999999
20
141.33866
10
299.75560000000002
20
139.97361000000001
10
299.80070000000001
20
139.95713000000001
10
299.97239999999999
20
139.85943
10
300.1986
20
139.71199000000001
10
300.47370000000001
20
139.50801000000001
10
300.79140000000001
20
139.24116000000001
10
301.14490000000001
20
138.90567999999999
10
301.52690000000001
20
138.49643
10
301.92939999999999
20
138.00890000000001
10
302.34429999999998
20
137.4393
10
302.76279999999997
20
136.78453000000002
10
303.17610000000002
20
136.04230000000001
10
302.78649999999999
20
135.27770000000001
10
301.94310000000002
20
135.17570000000001
10
301.16730000000001
20
135.12950000000001
10
300.46269999999998
20
135.13030000000001
10
299.83170000000001
20
135.1694
10
299.27610000000004
20
135.23779999999999
10
298.79689999999999
20
135.32659999999998
10
298.39429999999999
20
135.42680000000001
10
298.0675
20
135.52950000000001
10
297.81529999999998
20
135.6258
10
297.63529999999997
20
135.7073
10
297.59550000000002
20
135.73410000000001
10
296.7518
20
134.5729
10
296.78960000000001
20
134.54330000000002
10
296.92270000000002
20
134.3973
10
297.09229999999997
20
134.18720000000002
10
297.29089999999997
20
133.90819999999999
10
297.51060000000001
20
133.55619999999999
10
297.7432
20
133.12799999999999
10
297.97989999999999
20
132.6207
10
298.21210000000002
20
132.0326
10
298.43060000000003
20
131.36269999999999
10
298.62639999999999
20
130.61070000000001
10
298.7901
20
129.77700000000002
10
298.18329999999997
20
129.17020000000002
10
297.34960000000001
20
129.3339
10
296.5976
20
129.52960000000002
10
295.92759999999998
20
129.7482
10
295.33960000000002
20
129.9803
10
294.83229999999998
20
130.21710000000002
10
294.404
20
130.4496
10
294.0521
20
130.6694
10
293.7731
20
130.86799999999999
10
293.56299999999999
20
131.0376
10
293.41699999999997
20
131.17070000000001
10
293.38740000000001
20
131.20850000000002
10
292.22620000000001
20
130.3648
10
292.25299999999999
20
130.32500000000002
10
292.33449999999999
20
130.14500000000001
10
292.43079999999998
20
129.89280000000002
10
292.5335
20
129.566
10
292.63370000000003
20
129.1634
10
292.72249999999997
20
128.6842
10
292.79090000000002
20
128.12860000000001
10
292.83000000000004
20
127.49760000000001
10
292.83079999999995
20
126.79299999999999
10
292.78460000000001
20
126.0172
10
292.68259999999998
20
125.17380000000001
10
291.91800000000001
20
124.7842
10
291.17579999999998
20
125.19750000000001
10
290.52100000000002
20
125.616
10
289.95139999999998
20
126.0309
10
289.46390000000002
20
126.43340000000001
10
289.05459999999999
20
126.8154
10
288.71910000000003
20
127.16889999999999
10
288.45230000000004
20
127.48660000000001
10
288.24829999999997
20
127.7617
10
288.10089999999997
20
127.9879
10
288.00319999999999
20
128.15960000000001
10
287.98670000000004
20
128.2047
10
286.6216
20
127.7612
10
286.63479999999998
20
127.715
10
286.6567
20
127.5187
10
286.67039999999997
20
127.249
10
286.6671
20
126.90649999999999
10
286.63799999999998
20
126.4926
10
286.57429999999999
20
126.0095
10
286.46769999999998
20
125.4599
10
286.30990000000003
20
124.8477
10
286.09289999999999
20
124.1773
10
285.80919999999998
20
123.4538
10
285.45169999999996
20
122.6832
10
284.60410000000002
20
122.5489
10
284.02589999999998
20
123.1713
10
283.53249999999997
20
123.7717
10
283.1189
20
124.34229999999999
10
282.77969999999999
20
124.87580000000001
10
282.50850000000003
20
125.3655
10
282.29859999999996
20
125.80540000000001
10
282.14299999999997
20
126.19
10
282.03409999999997
20
126.5146
10
281.96379999999999
20
126.7754
10
281.9239
20
126.96889999999999
10
281.92219999999998
20
127.01679999999999
10
280.48680000000002
20
127.01679999999999
10
280.48509999999999
20
126.96889999999999
10
280.4452
20
126.7754
10
280.37489999999997
20
126.5146
10
280.26599999999996
20
126.19
10
280.11040000000003
20
125.80540000000001
10
279.90050000000002
20
125.3655
10
279.6293
20
124.87580000000001
10
279.2901
20
124.34229999999999
10
278.87650000000002
20
123.7717
10
278.38310000000001
20
123.1713
10
277.80489999999998
20
122.5489
10
276.95730000000003
20
122.6832
10
276.59980000000002
20
123.4538
10
276.31610000000001
20
124.1773
10
276.09910000000002
20
124.8477
10
275.94130000000001
20
125.4599
10
275.8347
20
126.0095
10
275.77099999999996
20
126.4926
10
275.74189999999999
20
126.90649999999999
10
275.73860000000002
20
127.249
10
275.75229999999999
20
127.5187
10
275.77420000000001
20
127.715
10
275.78739999999999
20
127.7612
10
274.42230000000001
20
128.2047
10
274.4058
20
128.15960000000001
10
274.30810000000002
20
127.9879
10
274.16070000000002
20
127.7617
10
273.95670000000001
20
127.48660000000001
10
273.68990000000002
20
127.16889999999999
10
273.3544
20
126.8154
10
272.94509999999997
20
126.43340000000001
10
272.45760000000001
20
126.0309
10
271.88800000000003
20
125.616
10
271.23320000000001
20
125.19750000000001
10
270.49099999999999
20
124.7842
10
269.72640000000001
20
125.17380000000001
10
269.62440000000004
20
126.0172
10
269.57819999999998
20
126.79299999999999
10
269.57900000000001
20
127.49760000000001
10
269.61810000000003
20
128.12860000000001
10
269.68650000000002
20
128.6842
10
269.77529999999996
20
129.1634
10
269.87549999999999
20
129.566
10
269.97820000000002
20
129.89280000000002
10
270.0745
20
130.14500000000001
10
270.15600000000001
20
130.32500000000002
10
270.18279999999999
20
130.3648
10
269.02159999999998
20
131.20850000000002
10
268.99200000000002
20
131.17070000000001
10
268.846
20
131.0376
10
268.63589999999999
20
130.86799999999999
10
268.3569
20
130.6694
10
268.00490000000002
20
130.44970000000001
10
267.57670000000002
20
130.21710000000002
10
267.06939999999997
20
129.9804
10
266.48129999999998
20
129.7482
10
265.81139999999999
20
129.52969999999999
10
265.05939999999998
20
129.3339
10
264.22570000000002
20
129.17020000000002
10
263.6189
20
129.77700000000002
10
263.7826
20
130.61070000000001
10
263.97829999999999
20
131.36269999999999
10
264.19689999999997
20
132.03270000000001
10
264.42899999999997
20
132.6207
10
264.66579999999999
20
133.12799999999999
10
264.89829999999995
20
133.55629999999999
10
265.11810000000003
20
133.90819999999999
10
265.31669999999997
20
134.18720000000002
10
265.48629999999997
20
134.3973
10
265.61939999999998
20
134.54330000000002
10
265.65719999999999
20
134.5729
10
264.81349999999998
20
135.73410000000001
10
264.77370000000002
20
135.7073
10
264.59370000000001
20
135.6258
10
264.3415
20
135.52950000000001
10
264.0147
20
135.42680000000001
10
263.6121
20
135.32659999999998
10
263.13290000000001
20
135.23779999999999
10
262.57729999999998
20
135.1694
10
261.94630000000001
20
135.13030000000001
10
261.24169999999998
20
135.12950000000001
10
260.46589999999998
20
135.17570000000001
10
259.6225
20
135.27770000000001
10
259.23290000000003
20
136.04230000000001
10
259.64620000000002
20
136.78453000000002
10
260.06470000000002
20
137.4393
10
260.4796
20
138.00890000000001
10
260.88209999999998
20
138.49643
10
261.26409999999998
20
138.90567999999999
10
261.61760000000004
20
139.24116000000001
10
261.93529999999998
20
139.50801000000001
10
262.21039999999999
20
139.71199000000001
10
262.4366
20
139.85943
10
262.60829999999999
20
139.95713000000001
10
262.65339999999998
20
139.97361000000001
10
262.2099
20
141.33866
10
262.16369999999995
20
141.32548
10
261.9674
20
141.30359000000001
10
261.6977
20
141.28987999999998
10
261.35519999999997
20
141.29321000000002
10
260.94130000000001
20
141.32234
10
260.45819999999998
20
141.38597000000001
10
259.90859999999998
20
141.49257
10
259.29640000000001
20
141.65039000000002
10
258.62599999999998
20
141.86736999999999
10
257.90250000000003
20
142.15107
10
257.13190000000003
20
142.50864000000001
0
LWPOLYLINE
5
103
100
AcDbEntity
8
0
100
AcDbPolyline
90
40
70
1
43
0.0
10
239.65450000000001
20
160.0891
10
239.67357999999996
20
159.8467
10
239.73036000000002
20
159.61020000000002
10
239.82343999999998
20
159.3854
10
239.95052000000001
20
159.1781
10
240.10849000000002
20
158.9931
10
240.29343399999999
20
158.83520000000001
10
240.50081499999999
20
158.7081
10
240.725525
20
158.61500000000001
10
240.96202699999998
20
158.5582
10
241.2045
20
158.53910000000002
10
241.44697300000001
20
158.5582
10
241.68347499999999
20
158.61500000000001
10
241.908185
20
158.7081
10
242.11556599999997
20
158.83520000000001
10
242.30051
20
158.9931
10
242.45847999999998
20
159.1781
10
242.58555999999999
20
159.3854
10
242.67864
20
159.61020000000002
10
242.73541999999998
20
159.8467
10
242.75450000000001
20
160.0891
10
242.73541999999998
20
160.33159999999998
10
242.67864
20
160.56809999999999
10
242.58555999999999
20
160.7928
10
242.45847999999998
20
161.00020000000001
10
242.30051
20
161.18510000000001
10
242.11556599999997
20
161.34309999999999
10
241.908185
20
161.47020000000001
10
241.68347499999999
20
161.5633
10
241.44697300000001
20
161.62
10
241.2045
20
161.63910000000001
10
240.96202699999998
20
161.62
10
240.725525
20
161.5633
10
240.50081499999999
20
161.47020000000001
10
240.29343399999999
20
161.34309999999999
10
240.10849000000002
20
161.18510000000001
10
239.95052000000001
20
161.00020000000001
10
239.82343999999998
20
160.7928
10
239.73036000000002
20
160.56809999999999
10
239.67357999999996
20
160.33159999999998
0
LWPOLYLINE
5
104
100
AcDbEntity
8
0
100
AcDbPolyline
90
240
70
1
43
0.0
10
228.4298
20
156.27027000000001
10
228.86330000000001
20
156.9297
10
229.3038
20
157.48169999999999
10
229.7355
20
157.93100000000001
10
230.1437
20
158.28440000000001
10
230.51519999999999
20
158.5505
10
230.83770000000001
20
158.73950000000002
10
231.101
20
158.8629
10
231.29631000000001
20
158.93360000000001
10
231.41683999999998
20
158.96530000000001
10
231.45772999999997
20
158.9726
10
232.62259
20
159.10599999999999
10
232.62259
20
161.07230000000001
10
231.45772999999997
20
161.20570000000001
10
231.41683999999998
20
161.21300000000002
10
231.29631000000001
20
161.24469999999999
10
231.101
20
161.31530000000001
10
230.83770000000001
20
161.43879999999999
10
230.51519999999999
20
161.6277
10
230.1437
20
161.8939
10
229.7355
20
162.2473
10
229.3038
20
162.69660000000002
10
228.86330000000001
20
163.24850000000001
10
228.4298
20
163.90799999999999
10
228.62479999999999
20
164.50839999999999
10
229.36319999999998
20
164.78710000000001
10
230.04400000000001
20
164.97469999999998
10
230.65729999999999
20
165.08449999999999
10
231.19540000000001
20
165.13040000000001
10
231.65227999999999
20
165.12740000000002
10
232.02431000000001
20
165.09070000000003
10
232.30986000000001
20
165.03579999999999
10
232.5094
20
164.97820000000002
10
232.62553999999997
20
164.93300000000002
10
232.66289
20
164.91479999999999
10
233.68371999999999
20
164.3381
10
234.83946
20
165.92880000000002
10
233.97550999999999
20
166.72150000000002
10
233.94668999999999
20
166.75139999999999
10
233.86780999999999
20
166.84789999999998
10
233.75135999999998
20
167.01979999999998
10
233.61093
20
167.27450000000002
10
233.46102999999999
20
167.61690000000002
10
233.31695999999999
20
168.0505
10
233.19437999999997
20
168.57640000000001
10
233.10921999999999
20
169.19370000000001
10
233.07732999999999
20
169.89910000000003
10
233.11420999999999
20
170.6875
10
233.62493000000001
20
171.05850000000001
10
234.38610999999997
20
170.85000000000002
10
235.04714999999999
20
170.60169999999999
10
235.60784999999998
20
170.32990000000001
10
236.07015000000001
20
170.05079999999998
10
236.43800999999999
20
169.77980000000002
10
236.71740999999997
20
169.53140000000002
10
236.91614999999999
20
169.31920000000002
10
237.04372000000001
20
169.15530000000001
10
237.11112
20
169.0505
10
237.13065
20
169.0138
10
237.61752000000001
20
167.94720000000001
10
239.48757999999998
20
168.5548
10
239.25452999999999
20
169.70390000000003
10
239.24879999999999
20
169.745
10
239.24170000000001
20
169.86950000000002
10
239.24857
20
170.077
10
239.28460999999999
20
170.36560000000003
10
239.36464000000001
20
170.73080000000002
10
239.50295
20
171.1662
10
239.71291000000002
20
171.66370000000001
10
240.00681
20
172.21319999999997
10
240.39564799999999
20
172.80260000000001
10
240.88887299999999
20
173.4187
10
241.52014199999999
20
173.4187
10
242.01336699999999
20
172.80260000000001
10
242.40220999999997
20
172.21319999999997
10
242.69610999999998
20
171.66370000000001
10
242.90607
20
171.1662
10
243.04437000000001
20
170.73080000000002
10
243.12441000000001
20
170.36560000000003
10
243.16045
20
170.077
10
243.16731000000001
20
169.86950000000002
10
243.16022000000001
20
169.745
10
243.15448000000001
20
169.70390000000003
10
242.92142999999999
20
168.5548
10
244.79147999999998
20
167.94720000000001
10
245.27834999999999
20
169.0138
10
245.29787999999999
20
169.0505
10
245.36528000000001
20
169.15530000000001
10
245.49285
20
169.31920000000002
10
245.69158999999999
20
169.53140000000002
10
245.97099
20
169.77980000000002
10
246.33884999999998
20
170.05079999999998
10
246.80115000000001
20
170.32990000000001
10
247.36185
20
170.60169999999999
10
248.02288999999999
20
170.85000000000002
10
248.78406999999999
20
171.05850000000001
10
249.29479000000001
20
170.6875
10
249.33167
20
169.89910000000003
10
249.29978
20
169.19370000000001
10
249.21461999999997
20
168.57640000000001
10
249.09204
20
168.0505
10
248.94797
20
167.61690000000002
10
248.79807
20
167.27450000000002
10
248.65763999999999
20
167.01979999999998
10
248.54119
20
166.84789999999998
10
248.46231
20
166.75139999999999
10
248.43349000000001
20
166.72150000000002
10
247.56954000000002
20
165.92880000000002
10
248.72528
20
164.3381
10
249.74610999999999
20
164.91479999999999
10
249.78345999999999
20
164.93300000000002
10
249.89959999999999
20
164.97820000000002
10
250.09913999999998
20
165.03579999999999
10
250.38468999999998
20
165.09070000000003
10
250.75672
20
165.12740000000002
10
251.21359999999999
20
165.13040000000001
10
251.75170000000003
20
165.08449999999999
10
252.36500000000001
20
164.97469999999998
10
253.04580000000001
20
164.78710000000001
10
253.7842
20
164.50839999999999
10
253.97919999999999
20
163.90799999999999
10
253.54569999999998
20
163.24850000000001
10
253.1052
20
162.69660000000002
10
252.67349999999999
20
162.2473
10
252.2653
20
161.8939
10
251.8938
20
161.6277
10
251.57129999999998
20
161.43879999999999
10
251.30799999999999
20
161.31530000000001
10
251.11268999999999
20
161.24469999999999
10
250.99215999999998
20
161.21300000000002
10
250.95126999999997
20
161.20570000000001
10
249.78640999999999
20
161.07230000000001
10
249.78640999999999
20
159.10599999999999
10
250.95126999999997
20
158.9726
10
250.99215999999998
20
158.96530000000001
10
251.11268999999999
20
158.93360000000001
10
251.30799999999999
20
158.8629
10
251.57129999999998
20
158.73950000000002
10
251.8938
20
158.5505
10
252.2653
20
158.28440000000001
10
252.67349999999999
20
157.93100000000001
10
253.1052
20
157.48169999999999
10
253.54569999999998
20
156.9297
10
253.97919999999999
20
156.27027000000001
10
253.7842
20
155.66988000000001
10
253.04580000000001
20
155.39117999999999
10
252.36500000000001
20
155.20353
10
251.75170000000003
20
155.09379000000001
10
251.21359999999999
20
155.04784000000001
10
250.75672
20
155.05088000000001
10
250.38468999999998
20
155.08760999999998
10
250.09913999999998
20
155.14249000000001
10
249.89959999999999
20
155.20011
10
249.78345999999999
20
155.24530999999999
10
249.74610999999999
20
155.26346000000001
10
248.72528
20
155.84019000000001
10
247.56954000000002
20
154.24943999999999
10
248.43349000000001
20
153.45679000000001
10
248.46231
20
153.42689000000001
10
248.54119
20
153.33039000000002
10
248.65763999999999
20
153.15842000000001
10
248.79807
20
152.90382
10
248.94797
20
152.56135
10
249.09204
20
152.12773999999999
10
249.21461999999997
20
151.60183000000001
10
249.29978
20
150.9846
10
249.33167
20
150.27916999999999
10
249.29479000000001
20
149.49081000000001
10
248.78406999999999
20
149.11974000000001
10
248.02288999999999
20
149.32828000000001
10
247.36185
20
149.57660999999999
10
246.80115000000001
20
149.84833
10
246.33884999999998
20
150.12742
10
245.97099
20
150.39843999999999
10
245.69158999999999
20
150.64682999999999
10
245.49285
20
150.85908000000001
10
245.36528000000001
20
151.02296999999999
10
245.29787999999999
20
151.12780000000001
10
245.27834999999999
20
151.16445000000002
10
244.79147999999998
20
152.23105999999999
10
242.92141999999998
20
151.62344000000002
10
243.15447
20
150.47436000000002
10
243.16019999999997
20
150.43322000000001
10
243.16730000000001
20
150.30879999999999
10
243.16043000000002
20
150.10122000000001
10
243.12438999999998
20
149.81269
10
243.04435999999998
20
149.44752
10
242.90604999999999
20
149.01203000000001
10
242.69609
20
148.51452
10
242.40218999999999
20
147.96511000000001
10
242.013352
20
147.375663
10
241.520127
20
146.75954317
10
240.888858
20
146.75954317
10
240.39563299999998
20
147.375663
10
240.00678999999997
20
147.96511000000001
10
239.71288999999999
20
148.51452
10
239.50292999999999
20
149.01203000000001
10
239.36463000000001
20
149.44752
10
239.28459000000001
20
149.81269
10
239.24855000000002
20
150.10122000000001
10
239.24169000000001
20
150.30879999999999
10
239.24878000000001
20
150.43322000000001
10
239.25452000000001
20
150.47436000000002
10
239.48757000000001
20
151.62344999999999
10
237.61752000000001
20
152.23105999999999
10
237.13065
20
151.16445000000002
10
237.11112
20
151.12780000000001
10
237.04372000000001
20
151.02296999999999
10
236.91614999999999
20
150.85908000000001
10
236.71740999999997
20
150.64682999999999
10
236.43800999999999
20
150.39843999999999
10
236.07015000000001
20
150.12742
10
235.60784999999998
20
149.84833
10
235.04714999999999
20
149.57660999999999
10
234.38610999999997
20
149.32828000000001
10
233.62493000000001
20
149.11974000000001
10
233.11420999999999
20
149.49081000000001
10
233.07732999999999
20
150.27916999999999
10
233.10921999999999
20
150.9846
10
233.19437999999997
20
151.60183000000001
10
233.31695999999999
20
152.12773999999999
10
233.46102999999999
20
152.56135
10
233.61093
20
152.90382
10
233.75135999999998
20
153.15842000000001
10
233.86780999999999
20
153.33039000000002
10
233.94668999999999
20
153.42689000000001
10
233.97550999999999
20
153.45679000000001
10
234.83946
20
154.24943999999999
10
233.68371999999999
20
155.84019000000001
10
232.66289
20
155.26346000000001
10
232.62553999999997
20
155.24530999999999
10
232.5094
20
155.20011
10
232.30986000000001
20
155.14249000000001
10
232.02431000000001
20
155.08760999999998
10
231.65227999999999
20
155.05088000000001
10
231.19540000000001
20
155.04784000000001
10
230.65729999999999
20
155.09379000000001
10
230.04400000000001
20
155.20353
10
229.36319999999998
20
155.39117999999999
10
228.62479999999999
20
155.66988000000001
0
LWPOLYLINE
5
105
100
AcDbEntity
8
0
100
AcDbPolyline
90
40
70
1
43
0.0
10
239.65450000000001
20
133.42250000000001
10
239.67357999999996
20
133.18000000000001
10
239.73036000000002
20
132.9435
10
239.82343999999998
20
132.71879999999999
10
239.95052000000001
20
132.51139999999998
10
240.10849000000002
20
132.32650000000001
10
240.29343399999999
20
132.16849999999999
10
240.50081499999999
20
132.04140000000001
10
240.725525
20
131.94829999999999
10
240.96202699999998
20
131.89160000000001
10
241.2045
20
131.8725
10
241.44697300000001
20
131.89160000000001
10
241.68347499999999
20
131.94829999999999
10
241.908185
20
132.04140000000001
10
242.11556599999997
20
132.16849999999999
10
242.30051
20
132.32650000000001
10
242.45847999999998
20
132.51139999999998
10
242.58555999999999
20
132.71879999999999
10
242.67864
20
132.9435
10
242.73541999999998
20
133.18000000000001
10
242.75450000000001
20
133.42250000000001
10
242.73541999999998
20
133.66490000000002
10
242.67864
20
133.9014
10
242.58555999999999
20
134.12620000000001
10
242.45847999999998
20
134.33350000000002
10
242.30051
20
134.51850000000002
10
242.11556599999997
20
134.6764
10
241.908185
20
134.80350000000001
10
241.68347499999999
20
134.89660000000001
10
241.44697300000001
20
134.95340000000002
10
241.2045
20
134.97250000000003
10
240.96202699999998
20
134.95340000000002
10
240.725525
20
134.89660000000001
10
240.50081499999999
20
134.80350000000001
10
240.29343399999999
20
134.6764
10
240.10849000000002
20
134.51850000000002
10
239.95052000000001
20
134.33350000000002
10
239.82343999999998
20
134.12620000000001
10
239.73036000000002
20
133.9014
10
239.67357999999996
20
133.66490000000002
0
LWPOLYLINE
5
106
100
AcDbEntity
8
0
100
AcDbPolyline
90
240
70
1
43
0.0
10
227.87489999999997
20
133.10679999999999
10
227.87489999999997
20
133.7381
10
228.49099999999999
20
134.2313
10
229.0805
20
134.62020000000001
10
229.62989999999996
20
134.91409999999999
10
230.12740000000002
20
135.124
10
230.56290000000001
20
135.26230000000001
10
230.9281
20
135.3424
10
231.21657999999999
20
135.3784
10
231.42416999999998
20
135.3853
10
231.54858999999999
20
135.37819999999999
10
231.58972
20
135.3724
10
232.73882
20
135.13939999999999
10
233.34641999999999
20
137.00943999999998
10
232.27981999999997
20
137.49632
10
232.24316999999999
20
137.51585
10
232.13833999999997
20
137.58325000000002
10
231.97443999999996
20
137.71081000000001
10
231.76219
20
137.90956
10
231.51381000000001
20
138.18896000000001
10
231.24278000000001
20
138.55681999999999
10
230.96370000000002
20
139.01911999999999
10
230.69199999999998
20
139.57982000000001
10
230.44370000000001
20
140.24086
10
230.23509999999999
20
141.00203999999999
10
230.6062
20
141.51275000000001
10
231.39453
20
141.54963000000001
10
232.09996000000001
20
141.51774
10
232.71719999999999
20
141.43258
10
233.2431
20
141.31001000000001
10
233.67671000000001
20
141.16594000000001
10
234.01917999999998
20
141.01603
10
234.27378999999999
20
140.87560999999999
10
234.44575999999998
20
140.75915000000001
10
234.54225000000002
20
140.68028000000001
10
234.57216
20
140.65146000000001
10
235.36480999999998
20
139.78749999999999
10
236.95554999999999
20
140.94325000000001
10
236.37882999999999
20
141.96408
10
236.36067
20
142.00143
10
236.31547999999998
20
142.11757
10
236.25785999999999
20
142.31709999999998
10
236.20296999999999
20
142.60265999999999
10
236.16624999999999
20
142.97468000000001
10
236.16320999999999
20
143.43159
10
236.20914999999999
20
143.96965
10
236.31889999999999
20
144.58296999999999
10
236.50655
20
145.26373000000001
10
236.78525000000002
20
146.00211899999999
10
237.38564
20
146.19718600000002
10
238.04510999999997
20
145.76363799999999
10
238.59706
20
145.32320999999999
10
239.04635999999999
20
144.89150999999998
10
239.39977999999999
20
144.48322999999999
10
239.66589999999999
20
144.11179999999999
10
239.85484
20
143.78923
10
239.97828999999999
20
143.52595000000002
10
240.04897
20
143.33065000000002
10
240.08065999999999
20
143.21012999999999
10
240.08792
20
143.16923
10
240.221362
20
142.00438
10
242.18763799999999
20
142.00438
10
242.32107999999999
20
143.16923
10
242.32834
20
143.21012999999999
10
242.36002999999999
20
143.33065000000002
10
242.43071
20
143.52595000000002
10
242.55416
20
143.78923
10
242.7431
20
144.11179999999999
10
243.00922
20
144.48322999999999
10
243.36264
20
144.89150999999998
10
243.81193999999999
20
145.32320999999999
10
244.36388999999997
20
145.76363799999999
10
245.02336
20
146.19718600000002
10
245.62375
20
146.00211899999999
10
245.90244999999999
20
145.26373000000001
10
246.09009999999998
20
144.58296999999999
10
246.19985
20
143.96965
10
246.24579
20
143.43159
10
246.24275
20
142.97468000000001
10
246.20603
20
142.60265999999999
10
246.15114
20
142.31709999999998
10
246.09352000000001
20
142.11757
10
246.04832999999999
20
142.00143
10
246.03017
20
141.96408
10
245.45345
20
140.94325000000001
10
247.04419000000001
20
139.78749999999999
10
247.83684
20
140.65146000000001
10
247.86675
20
140.68028000000001
10
247.96323999999998
20
140.75915000000001
10
248.13521000000003
20
140.87560999999999
10
248.38982000000001
20
141.01603
10
248.73228999999998
20
141.16594000000001
10
249.16589999999999
20
141.31001000000001
10
249.69179999999997
20
141.43258
10
250.30903999999998
20
141.51774
10
251.01447000000002
20
141.54963000000001
10
251.80279999999999
20
141.51275000000001
10
252.17389999999997
20
141.00203999999999
10
251.96529999999998
20
140.24086
10
251.71700000000001
20
139.57982000000001
10
251.4453
20
139.01911999999999
10
251.16622000000001
20
138.55681999999999
10
250.89518999999999
20
138.18896000000001
10
250.64681000000002
20
137.90956
10
250.43455999999998
20
137.71081000000001
10
250.27065999999996
20
137.58325000000002
10
250.16583
20
137.51585
10
250.12917999999999
20
137.49632
10
249.06258000000003
20
137.00943999999998
10
249.67019999999997
20
135.13939999999999
10
250.81927999999999
20
135.3724
10
250.86040999999997
20
135.37819999999999
10
250.98482999999999
20
135.3853
10
251.19242
20
135.3784
10
251.48089999999999
20
135.3424
10
251.84609999999998
20
135.26230000000001
10
252.2816
20
135.124
10
252.77909999999997
20
134.91409999999999
10
253.32850000000002
20
134.62020000000001
10
253.91800000000001
20
134.2313
10
254.53409999999997
20
133.7381
10
254.53409999999997
20
133.10679999999999
10
253.91800000000001
20
132.61359999999999
10
253.32850000000002
20
132.22480000000002
10
252.77909999999997
20
131.93090000000001
10
252.2816
20
131.7209
10
251.84609999999998
20
131.58260000000001
10
251.48089999999999
20
131.5026
10
251.19242
20
131.4665
10
250.98482999999999
20
131.4597
10
250.86040999999997
20
131.4667
10
250.81927999999999
20
131.4725
10
249.67017999999999
20
131.7055
10
249.06258000000003
20
129.83550000000002
10
250.12917999999999
20
129.3486
10
250.16583
20
129.32909999999998
10
250.27065999999996
20
129.26170000000002
10
250.43455999999998
20
129.13410000000002
10
250.64681000000002
20
128.93540000000002
10
250.89518999999999
20
128.65600000000001
10
251.16622000000001
20
128.28810000000001
10
251.4453
20
127.82580000000002
10
251.71700000000001
20
127.26510000000002
10
251.96529999999998
20
126.6041
10
252.17389999999997
20
125.84290000000001
10
251.80279999999999
20
125.3322
10
251.01447000000002
20
125.29530000000001
10
250.30903999999998
20
125.3272
10
249.69179999999997
20
125.4123
10
249.16589999999999
20
125.53489999999999
10
248.73228999999998
20
125.67900000000002
10
248.38982000000001
20
125.8289
10
248.13521000000003
20
125.9693
10
247.96323999999998
20
126.08580000000001
10
247.86675
20
126.1647
10
247.83684
20
126.1935
10
247.04419000000001
20
127.0574
10
245.45345
20
125.90170000000001
10
246.03017
20
124.8809
10
246.04832999999999
20
124.84350000000001
10
246.09352000000001
20
124.7274
10
246.15114
20
124.52780000000001
10
246.20603
20
124.24230000000001
10
246.24275
20
123.87030000000001
10
246.24579
20
123.41329999999999
10
246.19985
20
122.87530000000001
10
246.09009999999998
20
122.262
10
245.90244999999999
20
121.5812
10
245.62375
20
120.8428
10
245.02336
20
120.64769999999999
10
244.36388999999997
20
121.0813
10
243.81193999999999
20
121.5217
10
243.36264
20
121.95340000000002
10
243.00922
20
122.36170000000001
10
242.7431
20
122.73309999999998
10
242.55416
20
123.0557
10
242.43071
20
123.31900000000002
10
242.36002999999999
20
123.51430000000001
10
242.32834
20
123.63480000000001
10
242.32107999999999
20
123.67570000000001
10
242.18763799999999
20
124.84059999999999
10
240.221362
20
124.84059999999999
10
240.08792
20
123.67570000000001
10
240.08065999999999
20
123.63480000000001
10
240.04897
20
123.51430000000001
10
239.97828999999999
20
123.31900000000002
10
239.85484
20
123.0557
10
239.66589999999999
20
122.73309999999998
10
239.39977999999999
20
122.36170000000001
10
239.04635999999999
20
121.95340000000002
10
238.59706
20
121.5217
10
238.04510999999997
20
121.0813
10
237.38564
20
120.64769999999999
10
236.78525000000002
20
120.8428
10
236.50655
20
121.5812
10
236.31889999999999
20
122.262
10
236.20914999999999
20
122.87530000000001
10
236.16320999999999
20
123.41329999999999
10
236.16624999999999
20
123.87030000000001
10
236.20296999999999
20
124.24230000000001
10
236.25785999999999
20
124.52780000000001
10
236.31547999999998
20
124.7274
10
236.36067
20
124.84350000000001
10
236.37882999999999
20
124.8809
10
236.95554999999999
20
125.90170000000001
10
235.36480999999998
20
127.0574
10
234.57216
20
126.1935
10
234.54225000000002
20
126.1647
10
234.44575999999998
20
126.08580000000001
10
234.27378999999999
20
125.9693
10
234.01917999999998
20
125.8289
10
233.67671000000001
20
125.67900000000002
10
233.2431
20
125.53489999999999
10
232.71719999999999
20
125.4123
10
232.09996000000001
20
125.3272
10
231.39453
20
125.29530000000001
10
230.6062
20
125.3322
10
230.23509999999999
20
125.84290000000001
10
230.44370000000001
20
126.6041
10
230.69199999999998
20
127.26510000000002
10
230.96370000000002
20
127.82580000000002
10
231.24278000000001
20
128.28810000000001
10
231.51381000000001
20
128.65600000000001
10
231.76219
20
128.93540000000002
10
231.97443999999996
20
129.13410000000002
10
232.13833999999997
20
129.26170000000002
10
232.24316999999999
20
129.32909999999998
10
232.27981999999997
20
129.3486
10
233.34641999999999
20
129.83550000000002
10
232.73879999999997
20
131.7055
10
231.58972
20
131.4725
10
231.54858999999999
20
131.46680000000001
10
231.42416999999998
20
131.4597
10
231.21657999999999
20
131.4665
10
230.9281
20
131.5026
10
230.56290000000001
20
131.58260000000001
10
230.12740000000002
20
131.7209
10
229.62989999999996
20
131.93090000000001
10
229.0805
20
132.22480000000002
10
228.49099999999999
20
132.61359999999999
0
LWPOLYLINE
5
107
100
AcDbEntity
8
0
100
AcDbPolyline
90
40
70
1
43
0.0
10
199.65450000000001
20
206.75579999999999
10
199.67359999999999
20
206.51330000000002
10
199.7304
20
206.27680000000001
10
199.82339999999999
20
206.0521
10
199.95049999999998
20
205.84470000000005
10
200.10849999999999
20
205.65979999999999
10
200.29339999999996
20
205.5018
10
200.50080000000003
20
205.37469999999999
10
200.72550000000001
20
205.28170000000003
10
200.96199999999999
20
205.22490000000002
10
201.2045
20
205.20580000000001
10
201.447
20
205.22490000000002
10
201.68350000000001
20
205.28170000000003
10
201.90819999999999
20
205.37469999999999
10
202.11559999999997
20
205.5018
10
202.3005
20
205.65979999999999
10
202.45849999999996
20
205.84470000000005
10
202.5856
20
206.0521
10
202.67859999999999
20
206.27680000000001
10
202.7354
20
206.51330000000002
10
202.75450000000001
20
206.75579999999999
10
202.7354
20
206.99830000000003
10
202.67859999999999
20
207.23480000000001
10
202.5856
20
207.45949999999999
10
202.45849999999996
20
207.6669
10
202.3005
20
207.8518
10
202.11559999999997
20
208.00980000000004
10
201.90819999999999
20
208.13690000000003
10
201.68350000000001
20
208.22990000000001
10
201.447
20
208.28670000000002
10
201.2045
20
208.3058
10
200.96199999999999
20
208.28670000000002
10
200.72550000000001
20
208.22990000000001
10
200.50080000000003
20
208.13690000000003
10
200.29339999999996
20
208.00980000000004
10
200.10849999999999
20
207.8518
10
199.95049999999998
20
207.6669
10
199.82339999999999
20
207.45949999999999
10
199.7304
20
207.23480000000001
10
199.67359999999999
20
206.99830000000003
0
LWPOLYLINE
5
108
100
AcDbEntity
8
0
100
AcDbPolyline
90
40
70
1
43
0.0
10
199.65450000000001
20
146.75579999999999
10
199.67359999999999
20
146.513327
10
199.7304
20
146.276825
10
199.82339999999999
20
146.05211499999999
10
199.95049999999998
20
145.84473400000002
10
200.10849999999999
20
145.65979000000002
10
200.29339999999996
20
145.50182000000001
10
200.50080000000003
20
145.37474
10
200.72550000000001
20
145.28166000000002
10
200.96199999999999
20
145.22488000000001
10
201.2045
20
145.20580000000001
10
201.447
20
145.22488000000001
10
201.68350000000001
20
145.28166000000002
10
201.90819999999999
20
145.37474
10
202.11559999999997
20
145.50182000000001
10
202.3005
20
145.65979000000002
10
202.45849999999996
20
145.84473400000002
10
202.5856
20
146.05211499999999
10
202.67859999999999
20
146.276825
10
202.7354
20
146.513327
10
202.75450000000001
20
146.75579999999999
10
202.7354
20
146.99827300000001
10
202.67859999999999
20
147.23477500000001
10
202.5856
20
147.459485
10
202.45849999999996
20
147.666866
10
202.3005
20
147.85181
10
202.11559999999997
20
148.00978000000001
10
201.90819999999999
20
148.13686000000001
10
201.68350000000001
20
148.22994
10
201.447
20
148.28672
10
201.2045
20
148.3058
10
200.96199999999999
20
148.28672
10
200.72550000000001
20
148.22994
10
200.50080000000003
20
148.13686000000001
10
200.29339999999996
20
148.00978000000001
10
200.10849999999999
20
147.85181
10
199.95049999999998
20
147.666866
10
199.82339999999999
20
147.459485
10
199.7304
20
147.23477500000001
10
199.67359999999999
20
146.99827300000001
0
LWPOLYLINE
5
109
100
AcDbEntity
8
0
100
AcDbPolyline
90
455
70
1
43
0.0
10
176.76379999999997
20
146.32673800000001
10
176.76379999999997
20
147.184876
10
177.46899999999997
20
147.658602
10
178.13919999999996
20
148.05198999999999
10
178.76750000000001
20
148.37117000000001
10
179.34739999999999
20
148.62281999999999
10
179.87359999999998
20
148.81406999999999
10
180.3408
20
148.95250000000001
10
180.74509999999998
20
149.04602
10
181.08280000000002
20
149.10288000000003
10
181.35129999999998
20
149.13153
10
181.54859999999999
20
149.14063000000002
10
181.59629999999999
20
149.13484
10
181.82079999999999
20
150.55244999999999
10
181.77369999999996
20
150.56168
10
181.58879999999996
20
150.63131999999999
10
181.34229999999999
20
150.74155000000002
10
181.03870000000001
20
150.89998000000003
10
180.6832
20
151.11383000000001
10
180.28149999999997
20
151.38988000000001
10
179.84029999999996
20
151.73435000000001
10
179.36639999999997
20
152.15291000000002
10
178.86759999999998
20
152.65061
10
178.35180000000003
20
153.23184000000001
10
177.82749999999999
20
153.90030000000002
10
178.0926
20
154.71645000000001
10
178.90969999999996
20
154.94907000000001
10
179.6687
20
155.11610999999999
10
180.36479999999997
20
155.22552999999999
10
180.99420000000003
20
155.28563
10
181.55359999999999
20
155.30494999999999
10
182.04079999999999
20
155.29221000000001
10
182.45409999999998
20
155.25623999999999
10
182.7929
20
155.20595
10
183.05709999999999
20
155.15024
10
183.24759999999998
20
155.09789000000001
10
183.2912
20
155.07767000000001
10
183.94280000000003
20
156.35651999999999
10
183.90079999999998
20
156.37985
10
183.7465
20
156.50322
10
183.54610000000002
20
156.68421999999998
10
183.30629999999999
20
156.92870000000002
10
183.0342
20
157.24199999999999
10
182.73759999999996
20
157.62860000000001
10
182.42439999999999
20
158.0926
10
182.10309999999998
20
158.6371
10
181.7824
20
159.2646
10
181.47149999999996
20
159.9768
10
181.17939999999999
20
160.77449999999999
10
181.68379999999999
20
161.46879999999999
10
182.53279999999995
20
161.4375
10
183.30619999999996
20
161.36189999999999
10
184.00199999999998
20
161.2508
10
184.61919999999998
20
161.11350000000002
10
185.15719999999999
20
160.959
10
185.61660000000001
20
160.79630000000003
10
185.99860000000001
20
160.6344
10
186.30529999999999
20
160.48190000000002
10
186.5393
20
160.34719999999999
10
186.70429999999996
20
160.23859999999999
10
186.73949999999996
20
160.20590000000001
10
187.7544
20
161.2208
10
187.7217
20
161.25599999999997
10
187.61310000000003
20
161.42099999999999
10
187.47839999999997
20
161.65500000000003
10
187.32589999999999
20
161.96170000000001
10
187.16399999999999
20
162.34370000000001
10
187.00129999999999
20
162.8031
10
186.8468
20
163.34109999999998
10
186.70949999999999
20
163.95830000000001
10
186.5984
20
164.65409999999997
10
186.52279999999996
20
165.42750000000001
10
186.49149999999997
20
166.2765
10
187.1858
20
166.7809
10
187.98349999999999
20
166.48880000000003
10
188.69569999999999
20
166.17789999999999
10
189.32319999999999
20
165.85720000000003
10
189.86770000000001
20
165.5359
10
190.33169999999998
20
165.22269999999997
10
190.7183
20
164.92609999999999
10
191.0316
20
164.654
10
191.27609999999999
20
164.41419999999999
10
191.45710000000003
20
164.21379999999999
10
191.5804
20
164.05950000000001
10
191.60380000000001
20
164.01749999999998
10
192.88260000000002
20
164.66909999999999
10
192.86239999999998
20
164.71270000000001
10
192.81010000000003
20
164.9032
10
192.7544
20
165.16739999999999
10
192.70409999999998
20
165.50620000000004
10
192.66809999999998
20
165.9195
10
192.65539999999999
20
166.4067
10
192.6747
20
166.96609999999998
10
192.73480000000001
20
167.59550000000002
10
192.8442
20
168.29160000000002
10
193.0112
20
169.05059999999997
10
193.2439
20
169.86770000000001
10
193.7045
20
170.01730000000003
10
193.7045
20
206.75579999999999
10
193.79680000000002
20
207.92910000000001
10
194.07159999999999
20
209.07340000000002
10
194.52199999999999
20
210.16069999999999
10
195.1369
20
211.16420000000002
10
195.90119999999999
20
212.0591
10
196.7961
20
212.82340000000002
10
197.7996
20
213.4383
10
198.8869
20
213.8887
10
200.03119999999998
20
214.1635
10
201.2045
20
214.25579999999999
10
202.37780000000001
20
214.1635
10
203.52209999999999
20
213.8887
10
204.60939999999999
20
213.4383
10
205.6129
20
212.82340000000002
10
206.50779999999997
20
212.0591
10
207.27209999999999
20
211.16420000000002
10
207.887
20
210.16069999999999
10
208.3374
20
209.07340000000002
10
208.6122
20
207.92910000000001
10
208.7045
20
206.75579999999999
10
208.7045
20
170.01730000000003
10
209.1651
20
169.86770000000001
10
209.39779999999999
20
169.05059999999997
10
209.56479999999999
20
168.29160000000002
10
209.67420000000001
20
167.59550000000002
10
209.73430000000002
20
166.96609999999998
10
209.75359999999998
20
166.4067
10
209.74090000000001
20
165.9195
10
209.70489999999998
20
165.50620000000004
10
209.65460000000002
20
165.16739999999999
10
209.59890000000001
20
164.9032
10
209.54660000000001
20
164.71270000000001
10
209.5264
20
164.66909999999999
10
210.80520000000001
20
164.01749999999998
10
210.82859999999999
20
164.05950000000001
10
210.95189999999999
20
164.21379999999999
10
211.13290000000001
20
164.41419999999999
10
211.37740000000002
20
164.654
10
211.69069999999999
20
164.92609999999999
10
212.07729999999998
20
165.22269999999997
10
212.54130000000001
20
165.5359
10
213.08580000000001
20
165.85720000000003
10
213.7133
20
166.17789999999999
10
214.4255
20
166.48880000000003
10
215.22320000000002
20
166.7809
10
215.91749999999996
20
166.2765
10
215.88619999999997
20
165.42750000000001
10
215.81060000000002
20
164.65409999999997
10
215.6995
20
163.95830000000001
10
215.56219999999999
20
163.34109999999998
10
215.40769999999998
20
162.8031
10
215.245
20
162.34370000000001
10
215.08309999999997
20
161.96170000000001
10
214.9306
20
161.65500000000003
10
214.79589999999999
20
161.42099999999999
10
214.68729999999999
20
161.25599999999997
10
214.65460000000002
20
161.2208
10
215.66949999999997
20
160.20590000000001
10
215.7047
20
160.23859999999999
10
215.86970000000002
20
160.34719999999999
10
216.1037
20
160.48190000000002
10
216.41040000000001
20
160.6344
10
216.79239999999999
20
160.79630000000003
10
217.25179999999997
20
160.959
10
217.78980000000001
20
161.11350000000002
10
218.40699999999998
20
161.2508
10
219.1028
20
161.36189999999999
10
219.87619999999998
20
161.4375
10
220.7252
20
161.46879999999999
10
221.2296
20
160.77449999999999
10
220.9375
20
159.9768
10
220.6266
20
159.2646
10
220.30590000000001
20
158.6371
10
219.9846
20
158.0926
10
219.67140000000001
20
157.62860000000001
10
219.37479999999999
20
157.24199999999999
10
219.1027
20
156.92870000000002
10
218.8629
20
156.68421999999998
10
218.66250000000002
20
156.50322
10
218.50819999999999
20
156.37985
10
218.46620000000001
20
156.35651999999999
10
219.11779999999999
20
155.07767000000001
10
219.16139999999999
20
155.09789000000001
10
219.3519
20
155.15024
10
219.61610000000002
20
155.20595
10
219.95490000000001
20
155.25623999999999
10
220.3682
20
155.29221000000001
10
220.85539999999997
20
155.30494999999999
10
221.41480000000001
20
155.28563
10
222.04419999999999
20
155.22552999999999
10
222.74029999999999
20
155.11610999999999
10
223.49930000000001
20
154.94907000000001
10
224.31639999999999
20
154.71645000000001
10
224.58150000000001
20
153.90030000000002
10
224.05719999999999
20
153.23184000000001
10
223.54140000000001
20
152.65061
10
223.04259999999999
20
152.15291000000002
10
222.56869999999998
20
151.73435000000001
10
222.1275
20
151.38988000000001
10
221.72579999999999
20
151.11383000000001
10
221.37029999999999
20
150.89998000000003
10
221.06670000000003
20
150.74155000000002
10
220.8202
20
150.63131999999999
10
220.6353
20
150.56168
10
220.5882
20
150.55244999999999
10
220.81270000000001
20
149.13482999999999
10
220.8604
20
149.14061000000001
10
221.05770000000001
20
149.13151999999999
10
221.3262
20
149.10285999999999
10
221.66390000000001
20
149.04601
10
222.06819999999999
20
148.95249000000001
10
222.53540000000001
20
148.81406000000001
10
223.0616
20
148.62280000000001
10
223.64149999999998
20
148.37116
10
224.2698
20
148.05196999999998
10
224.94
20
147.65858500000002
10
225.64519999999999
20
147.18486200000001
10
225.64519999999999
20
146.32672400000001
10
224.94
20
145.85299799999999
10
224.2698
20
145.45961
10
223.64149999999998
20
145.14043000000001
10
223.0616
20
144.88878
10
222.53540000000001
20
144.69753
10
222.06819999999999
20
144.5591
10
221.66390000000001
20
144.46557999999999
10
221.3262
20
144.40872000000002
10
221.05770000000001
20
144.38007000000002
10
220.8604
20
144.37097
10
220.81270000000001
20
144.37675999999999
10
220.5882
20
142.95915000000002
10
220.6353
20
142.94992000000002
10
220.8202
20
142.88028
10
221.06670000000003
20
142.77005
10
221.37029999999999
20
142.61162000000002
10
221.72579999999999
20
142.39777000000001
10
222.1275
20
142.12172000000001
10
222.56869999999998
20
141.77725000000001
10
223.04259999999999
20
141.35869
10
223.54140000000001
20
140.86099000000002
10
224.05719999999999
20
140.27976000000001
10
224.58150000000001
20
139.6113
10
224.31639999999999
20
138.79515000000001
10
223.49930000000001
20
138.56253000000001
10
222.74029999999999
20
138.39549
10
222.04419999999999
20
138.28607
10
221.41480000000001
20
138.22596999999999
10
220.85539999999997
20
138.20665
10
220.3682
20
138.21939
10
219.95490000000001
20
138.25536
10
219.61610000000002
20
138.30565000000001
10
219.3519
20
138.36135999999999
10
219.16139999999999
20
138.41371000000001
10
219.11779999999999
20
138.43393
10
218.46620000000001
20
137.15508
10
218.50819999999999
20
137.13175000000001
10
218.66250000000002
20
137.00838000000002
10
218.8629
20
136.82738000000001
10
219.1027
20
136.5829
10
219.37479999999999
20
136.2696
10
219.67140000000001
20
135.88300000000001
10
219.9846
20
135.41900000000001
10
220.30590000000001
20
134.87450000000001
10
220.6266
20
134.24699999999999
10
220.9375
20
133.53480000000002
10
221.2296
20
132.7371
10
220.7252
20
132.0428
10
219.87619999999998
20
132.07409999999999
10
219.1028
20
132.1497
10
218.40699999999998
20
132.26079999999999
10
217.78980000000001
20
132.3981
10
217.25179999999997
20
132.55259999999998
10
216.79239999999999
20
132.71530000000001
10
216.41040000000001
20
132.87720000000002
10
216.1037
20
133.02969999999999
10
215.86970000000002
20
133.1644
10
215.7047
20
133.27300000000002
10
215.66949999999997
20
133.3057
10
214.65460000000002
20
132.29079999999999
10
214.68729999999999
20
132.25559999999999
10
214.79589999999999
20
132.09059999999999
10
214.9306
20
131.85660000000001
10
215.08309999999997
20
131.54990000000001
10
215.245
20
131.1679
10
215.40769999999998
20
130.70850000000002
10
215.56219999999999
20
130.1705
10
215.6995
20
129.55330000000001
10
215.81060000000002
20
128.85750000000002
10
215.88619999999997
20
128.08410000000001
10
215.91749999999996
20
127.23510000000002
10
215.22320000000002
20
126.73070000000001
10
214.4255
20
127.0228
10
213.7133
20
127.33370000000001
10
213.08580000000001
20
127.6544
10
212.54130000000001
20
127.9757
10
212.07729999999998
20
128.28890000000001
10
211.69069999999999
20
128.58550000000002
10
211.37740000000002
20
128.85760000000002
10
211.13290000000001
20
129.09739999999999
10
210.95189999999999
20
129.2978
10
210.82859999999999
20
129.4521
10
210.80520000000001
20
129.4941
10
209.5264
20
128.84250000000003
10
209.54660000000001
20
128.7989
10
209.59890000000001
20
128.60839999999999
10
209.65460000000002
20
128.3442
10
209.70489999999998
20
128.00540000000001
10
209.74090000000001
20
127.59210000000002
10
209.75359999999998
20
127.1049
10
209.73430000000002
20
126.5455
10
209.67420000000001
20
125.91610000000001
10
209.56479999999999
20
125.22
10
209.39779999999999
20
124.46100000000001
10
209.1651
20
123.6439
10
208.34899999999999
20
123.3788
10
207.68049999999999
20
123.90309999999999
10
207.0993
20
124.41890000000001
10
206.60159999999996
20
124.91770000000001
10
206.18299999999999
20
125.39160000000001
10
205.83859999999999
20
125.83280000000001
10
205.5625
20
126.2345
10
205.34869999999998
20
126.59
10
205.19019999999998
20
126.89360000000001
10
205.07999999999998
20
127.1401
10
205.0104
20
127.325
10
205.00110000000001
20
127.37210000000002
10
203.58349999999999
20
127.1476
10
203.58930000000001
20
127.09990000000002
10
203.58019999999999
20
126.90260000000001
10
203.55159999999998
20
126.6341
10
203.49469999999999
20
126.29640000000001
10
203.40119999999999
20
125.89210000000001
10
203.2628
20
125.42490000000001
10
203.07150000000001
20
124.89869999999999
10
202.81990000000002
20
124.3188
10
202.50069999999999
20
123.69050000000001
10
202.10729999999998
20
123.02030000000001
10
201.6336
20
122.3151
10
200.77539999999999
20
122.3151
10
200.30169999999998
20
123.02030000000001
10
199.9083
20
123.69050000000001
10
199.5891
20
124.3188
10
199.33750000000001
20
124.89869999999999
10
199.14619999999999
20
125.42490000000001
10
199.0078
20
125.89210000000001
10
198.9143
20
126.29640000000001
10
198.85739999999998
20
126.6341
10
198.8288
20
126.90260000000001
10
198.81969999999998
20
127.09990000000002
10
198.82550000000003
20
127.1476
10
197.40790000000001
20
127.37210000000002
10
197.39859999999999
20
127.325
10
197.32900000000001
20
127.1401
10
197.21879999999999
20
126.89360000000001
10
197.06029999999998
20
126.59
10
196.84649999999999
20
126.2345
10
196.57040000000001
20
125.83280000000001
10
196.226
20
125.39160000000001
10
195.80739999999997
20
124.91770000000001
10
195.30969999999999
20
124.41890000000001
10
194.7285
20
123.90309999999999
10
194.06
20
123.3788
10
193.2439
20
123.6439
10
193.0112
20
124.46100000000001
10
192.8442
20
125.22
10
192.73480000000001
20
125.91610000000001
10
192.6747
20
126.5455
10
192.65539999999999
20
127.1049
10
192.66809999999998
20
127.59210000000002
10
192.70409999999998
20
128.00540000000001
10
192.7544
20
128.3442
10
192.81010000000003
20
128.60839999999999
10
192.86239999999998
20
128.7989
10
192.88260000000002
20
128.84250000000003
10
191.60380000000001
20
129.4941
10
191.5804
20
129.4521
10
191.45710000000003
20
129.2978
10
191.27609999999999
20
129.09739999999999
10
191.0316
20
128.85760000000002
10
190.7183
20
128.58550000000002
10
190.33169999999998
20
128.28890000000001
10
189.86770000000001
20
127.9757
10
189.32319999999999
20
127.6544
10
188.69569999999999
20
127.33370000000001
10
187.98349999999999
20
127.0228
10
187.1858
20
126.73070000000001
10
186.49149999999997
20
127.23510000000002
10
186.52279999999996
20
128.08410000000001
10
186.5984
20
128.85750000000002
10
186.70949999999999
20
129.55330000000001
10
186.8468
20
130.1705
10
187.00129999999999
20
130.70850000000002
10
187.16399999999999
20
131.1679
10
187.32589999999999
20
131.54990000000001
10
187.47839999999997
20
131.85660000000001
10
187.61310000000003
20
132.09059999999999
10
187.7217
20
132.25559999999999
10
187.7544
20
132.29079999999999
10
186.73949999999996
20
133.3057
10
186.70429999999996
20
133.27300000000002
10
186.5393
20
133.1644
10
186.30529999999999
20
133.02969999999999
10
185.99860000000001
20
132.87720000000002
10
185.61660000000001
20
132.71530000000001
10
185.15719999999999
20
132.55259999999998
10
184.61919999999998
20
132.3981
10
184.00199999999998
20
132.26079999999999
10
183.30619999999996
20
132.1497
10
182.53279999999995
20
132.07409999999999
10
181.68379999999999
20
132.0428
10
181.17939999999999
20
132.7371
10
181.47149999999996
20
133.53480000000002
10
181.7824
20
134.24699999999999
10
182.10309999999998
20
134.87450000000001
10
182.42439999999999
20
135.41900000000001
10
182.73759999999996
20
135.88300000000001
10
183.0342
20
136.2696
10
183.30629999999999
20
136.5829
10
183.54610000000002
20
136.82738000000001
10
183.7465
20
137.00838000000002
10
183.90079999999998
20
137.13175000000001
10
183.94280000000003
20
137.15508
10
183.2912
20
138.43393
10
183.24759999999998
20
138.41371000000001
10
183.05709999999999
20
138.36135999999999
10
182.7929
20
138.30565000000001
10
182.45409999999998
20
138.25536
10
182.04079999999999
20
138.21939
10
181.55359999999999
20
138.20665
10
180.99420000000003
20
138.22596999999999
10
180.36479999999997
20
138.28607
10
179.6687
20
138.39549
10
178.90969999999996
20
138.56253000000001
10
178.0926
20
138.79515000000001
10
177.82749999999999
20
139.6113
10
178.35180000000003
20
140.27976000000001
10
178.86759999999998
20
140.86099000000002
10
179.36639999999997
20
141.35869
10
179.84029999999996
20
141.77725000000001
10
180.28149999999997
20
142.12172000000001
10
180.6832
20
142.39777000000001
10
181.03870000000001
20
142.61162000000002
10
181.34229999999999
20
142.77005
10
181.58879999999996
20
142.88028
10
181.77369999999996
20
142.94992000000002
10
181.82079999999999
20
142.95915000000002
10
181.59629999999999
20
144.37677000000002
10
181.54859999999999
20
144.37099000000001
10
181.35129999999998
20
144.38007999999999
10
181.08280000000002
20
144.40874000000002
10
180.74509999999998
20
144.46559000000002
10
180.3408
20
144.55911
10
179.87359999999998
20
144.69754
10
179.34739999999999
20
144.8888
10
178.76750000000001
20
145.14044000000001
10
178.13919999999996
20
145.45963
10
177.46899999999997
20
145.853015
0
ENDSEC
0
SECTION
2
OBJECTS
0
DICTIONARY
5
C
100
AcDbDictionary
3
ACAD_GROUP
350
D
3
ACAD_MLINESTYLE
350
17
0
DICTIONARY
5
D
100
AcDbDictionary
0
DICTIONARY
5
1A
330
C
100
AcDbDictionary
0
DICTIONARY
5
17
100
AcDbDictionary
0
ENDSEC
0
EOF
