0
SECTION
2
HEADER
9
$INSUNITS
70
4
9
$ACADVER
1
AC1014
9
$HANDSEED
5
FFFF
0
ENDSEC
0
SECTION
2
TABLES
0
TABLE
2
VPORT
5
8
100
AcDbSymbolTable
0
ENDTAB
0
TABLE
2
LTYPE
5
5
100
AcDbSymbolTable
0
LTYPE
5
14
100
AcDbSymbolTableRecord
100
AcDbLinetypeTableRecord
2
BYBLOCK
70
0
0
LTYPE
5
15
100
AcDbSymbolTableRecord
100
AcDbLinetypeTableRecord
2
BYLAYER
70
0
0
ENDTAB
0
TABLE
2
LAYER
5
2
100
AcDbSymbolTable
70
2
0
LAYER
5
50
100
AcDbSymbolTableRecord
100
AcDbLayerTableRecord
2
0
70
0
6
CONTINUOUS
0
ENDTAB
0
TABLE
2
STYLE
5
3
100
AcDbSymbolTable
70
1
0
STYLE
5
11
100
AcDbSymbolTableRecord
100
AcDbTextStyleTableRecord
2
STANDARD
70
0
0
ENDTAB
0
TABLE
2
VIEW
5
6
100
AcDbSymbolTable
70
0
0
ENDTAB
0
TABLE
2
UCS
5
7
100
AcDbSymbolTable
70
0
0
ENDTAB
0
TABLE
2
APPID
5
9
100
AcDbSymbolTable
70
2
0
APPID
5
12
100
AcDbSymbolTableRecord
100
AcDbRegAppTableRecord
2
ACAD
70
0
0
ENDTAB
0
TABLE
2
DIMSTYLE
5
A
100
AcDbSymbolTable
70
1
0
ENDTAB
0
TABLE
2
BLOCK_RECORD
5
1
100
AcDbSymbolTable
70
1
0
BLOCK_RECORD
5
1F
100
AcDbSymbolTableRecord
100
AcDbBlockTableRecord
2
*MODEL_SPACE
0
BLOCK_RECORD
5
1B
100
AcDbSymbolTableRecord
100
AcDbBlockTableRecord
2
*PAPER_SPACE
0
ENDTAB
0
ENDSEC
0
SECTION
2
BLOCKS
0
BLOCK
5
20
100
AcDbEntity
100
AcDbBlockBegin
2
*MODEL_SPACE
0
ENDBLK
5
21
100
AcDbEntity
100
AcDbBlockEnd
0
BLOCK
5
1C
100
AcDbEntity
100
AcDbBlockBegin
2
*PAPER_SPACE
0
ENDBLK
5
1D
100
AcDbEntity
100
AcDbBlockEnd
0
ENDSEC
0
SECTION
2
ENTITIES
0
LWPOLYLINE
5
100
100
AcDbEntity
8
0
100
AcDbPolyline
90
40
70
1
43
0.0
10
28.760899999999999
20
475.94400000000002
10
28.780000000000001
20
475.70159999999998
10
28.8368
20
475.46510000000001
10
28.9298
20
475.24040000000002
10
29.056899999999999
20
475.03300000000002
10
29.214900000000004
20
474.84800000000001
10
29.399800000000003
20
474.69009999999997
10
29.607200000000002
20
474.56299999999999
10
29.831900000000005
20
474.4699
10
30.068400000000004
20
474.41309999999999
10
30.310900000000004
20
474.39400000000001
10
30.553400000000003
20
474.41309999999999
10
30.789900000000003
20
474.4699
10
31.014600000000002
20
474.56299999999999
10
31.221999999999998
20
474.69009999999997
10
31.4069
20
474.84800000000001
10
31.564900000000002
20
475.03300000000002
10
31.691900000000004
20
475.24040000000002
10
31.785
20
475.46510000000001
10
31.841799999999999
20
475.70159999999998
10
31.860900000000001
20
475.94400000000002
10
31.841799999999999
20
476.18650000000002
10
31.785
20
476.423
10
31.691900000000004
20
476.64769999999999
10
31.564900000000002
20
476.85509999999999
10
31.4069
20
477.04009999999994
10
31.221999999999998
20
477.19799999999998
10
31.014600000000002
20
477.32509999999996
10
30.789900000000003
20
477.41819999999996
10
30.553400000000003
20
477.47500000000002
10
30.310900000000004
20
477.49400000000003
10
30.068400000000004
20
477.47500000000002
10
29.831900000000005
20
477.41819999999996
10
29.607200000000002
20
477.32509999999996
10
29.399800000000003
20
477.19799999999998
10
29.214900000000004
20
477.04009999999994
10
29.056899999999999
20
476.85509999999999
10
28.9298
20
476.64769999999999
10
28.8368
20
476.423
10
28.780000000000001
20
476.18650000000002
0
LWPOLYLINE
5
101
100
AcDbEntity
8
0
100
AcDbPolyline
90
40
70
1
43
0.0
10
28.760899999999999
20
421.2552
10
28.780000000000001
20
421.0127
10
28.8368
20
420.77619999999996
10
28.9298
20
420.55149999999998
10
29.056899999999999
20
420.34410000000003
10
29.214900000000004
20
420.15909999999997
10
29.399800000000003
20
420.00119999999993
10
29.607200000000002
20
419.8741
10
29.831900000000005
20
419.78099999999995
10
30.068400000000004
20
419.7242
10
30.310900000000004
20
419.70519999999999
10
30.553400000000003
20
419.7242
10
30.789900000000003
20
419.78099999999995
10
31.014600000000002
20
419.8741
10
31.221999999999998
20
420.00119999999993
10
31.4069
20
420.15909999999997
10
31.564900000000002
20
420.34410000000003
10
31.691900000000004
20
420.55149999999998
10
31.785
20
420.77619999999996
10
31.841799999999999
20
421.0127
10
31.860900000000001
20
421.2552
10
31.841799999999999
20
421.49760000000003
10
31.785
20
421.73409999999996
10
31.691900000000004
20
421.9588
10
31.564900000000002
20
422.1662
10
31.4069
20
422.35120000000001
10
31.221999999999998
20
422.50909999999999
10
31.014600000000002
20
422.63620000000003
10
30.789900000000003
20
422.72930000000002
10
30.553400000000003
20
422.78610000000003
10
30.310900000000004
20
422.80519999999996
10
30.068400000000004
20
422.78610000000003
10
29.831900000000005
20
422.72930000000002
10
29.607200000000002
20
422.63620000000003
10
29.399800000000003
20
422.50909999999999
10
29.214900000000004
20
422.35120000000001
10
29.056899999999999
20
422.1662
10
28.9298
20
421.9588
10
28.8368
20
421.73409999999996
10
28.780000000000001
20
421.49760000000003
0
LWPOLYLINE
5
102
100
AcDbEntity
8
0
100
AcDbPolyline
90
40
70
1
43
0.0
10
-1.5500000000000003
20
493.44400000000002
10
-1.5309200000000001
20
493.20159999999998
10
-1.4741400000000002
20
492.96510000000001
10
-1.3810600000000002
20
492.74040000000002
10
-1.2539799999999999
20
492.53300000000002
10
-1.0960100000000002
20
492.34800000000001
10
-0.91106599999999993
20
492.19009999999997
10
-0.703685
20
492.06299999999999
10
-0.47897500000000004
20
491.9699
10
-0.24247299999999999
20
491.91309999999999
10
0
20
491.89400000000001
10
0.24247299999999999
20
491.91309999999999
10
0.47897500000000004
20
491.9699
10
0.703685
20
492.06299999999999
10
0.91106599999999993
20
492.19009999999997
10
1.0960100000000002
20
492.34800000000001
10
1.2539799999999999
20
492.53300000000002
10
1.3810600000000002
20
492.74040000000002
10
1.4741400000000002
20
492.96510000000001
10
1.5309200000000001
20
493.20159999999998
10
1.5500000000000003
20
493.44400000000002
10
1.5309200000000001
20
493.68650000000002
10
1.4741400000000002
20
493.923
10
1.3810600000000002
20
494.14769999999999
10
1.2539799999999999
20
494.35509999999999
10
1.0960100000000002
20
494.54009999999994
10
0.91106599999999993
20
494.69799999999998
10
0.703685
20
494.82509999999996
10
0.47897500000000004
20
494.91820000000007
10
0.24247299999999999
20
494.97500000000002
10
0
20
494.99400000000003
10
-0.24247299999999999
20
494.97500000000002
10
-0.47897500000000004
20
494.91820000000007
10
-0.703685
20
494.82509999999996
10
-0.91106599999999993
20
494.69799999999998
10
-1.0960100000000002
20
494.54009999999994
10
-1.2539799999999999
20
494.35509999999999
10
-1.3810600000000002
20
494.14769999999999
10
-1.4741400000000002
20
493.923
10
-1.5309200000000001
20
493.68650000000002
0
LWPOLYLINE
5
103
100
AcDbEntity
8
0
100
AcDbPolyline
90
40
70
1
43
0.0
10
-1.5500000000000003
20
437.38850000000002
10
-1.5309200000000001
20
437.14599999999996
10
-1.4741400000000002
20
436.90949999999998
10
-1.3810600000000002
20
436.6848
10
-1.2539799999999999
20
436.47739999999999
10
-1.0960100000000002
20
436.29250000000002
10
-0.91106599999999993
20
436.1345
10
-0.703685
20
436.00740000000002
10
-0.47897500000000004
20
435.9144
10
-0.24247299999999999
20
435.85759999999999
10
0
20
435.83849999999995
10
0.24247299999999999
20
435.85759999999999
10
0.47897500000000004
20
435.9144
10
0.703685
20
436.00740000000002
10
0.91106599999999993
20
436.1345
10
1.0960100000000002
20
436.29250000000002
10
1.2539799999999999
20
436.47739999999999
10
1.3810600000000002
20
436.6848
10
1.4741400000000002
20
436.90949999999998
10
1.5309200000000001
20
437.14599999999996
10
1.5500000000000003
20
437.38850000000002
10
1.5309200000000001
20
437.63100000000003
10
1.4741400000000002
20
437.86749999999995
10
1.3810600000000002
20
438.09219999999993
10
1.2539799999999999
20
438.2996
10
1.0960100000000002
20
438.48450000000003
10
0.91106599999999993
20
438.64247
10
0.703685
20
438.76955000000004
10
0.47897500000000004
20
438.86262999999997
10
0.24247299999999999
20
438.91941000000003
10
0
20
438.93849
10
-0.24247299999999999
20
438.91941000000003
10
-0.47897500000000004
20
438.86262999999997
10
-0.703685
20
438.76955000000004
10
-0.91106599999999993
20
438.64247
10
-1.0960100000000002
20
438.48450000000003
10
-1.2539799999999999
20
438.2996
10
-1.3810600000000002
20
438.09219999999993
10
-1.4741400000000002
20
437.86749999999995
10
-1.5309200000000001
20
437.63100000000003
0
LWPOLYLINE
5
104
100
AcDbEntity
8
0
100
AcDbPolyline
90
40
70
1
43
0.0
10
-1.5500000000000003
20
403.7552
10
-1.5309200000000001
20
403.5127
10
-1.4741400000000002
20
403.27619999999996
10
-1.3810600000000002
20
403.05149999999998
10
-1.2539799999999999
20
402.84410000000003
10
-1.0960100000000002
20
402.65909999999997
10
-0.91106599999999993
20
402.50119999999993
10
-0.703685
20
402.3741
10
-0.47897500000000004
20
402.28099999999995
10
-0.24247299999999999
20
402.2242
10
0
20
402.20519999999999
10
0.24247299999999999
20
402.2242
10
0.47897500000000004
20
402.28099999999995
10
0.703685
20
402.3741
10
0.91106599999999993
20
402.50119999999993
10
1.0960100000000002
20
402.65909999999997
10
1.2539799999999999
20
402.84410000000003
10
1.3810600000000002
20
403.05149999999998
10
1.4741400000000002
20
403.27619999999996
10
1.5309200000000001
20
403.5127
10
1.5500000000000003
20
403.7552
10
1.5309200000000001
20
403.99760000000003
10
1.4741400000000002
20
404.23409999999996
10
1.3810600000000002
20
404.4588
10
1.2539799999999999
20
404.6662
10
1.0960100000000002
20
404.85120000000001
10
0.91106599999999993
20
405.00909999999999
10
0.703685
20
405.13620000000003
10
0.47897500000000004
20
405.22930000000002
10
0.24247299999999999
20
405.28610000000003
10
0
20
405.30519999999996
10
-0.24247299999999999
20
405.28610000000003
10
-0.47897500000000004
20
405.22930000000002
10
-0.703685
20
405.13620000000003
10
-0.91106599999999993
20
405.00909999999999
10
-1.0960100000000002
20
404.85120000000001
10
-1.2539799999999999
20
404.6662
10
-1.3810600000000002
20
404.4588
10
-1.4741400000000002
20
404.23409999999996
10
-1.5309200000000001
20
403.99760000000003
0
LWPOLYLINE
5
105
100
AcDbEntity
8
0
100
AcDbPolyline
90
40
70
1
43
0.0
10
-6.0000000000000009
20
459.8107
10
-5.9261300000000006
20
458.87210000000005
10
-5.70634
20
457.95661000000001
10
-5.3460400000000003
20
457.08677
10
-4.8540999999999999
20
456.28399999999999
10
-4.2426399999999997
20
455.56806999999998
10
-3.52671
20
454.95660999999996
10
-2.7239400000000002
20
454.46466999999996
10
-1.8541000000000003
20
454.10437000000002
10
-0.93860500000000002
20
453.88458000000003
10
0
20
453.81070999999997
10
0.93860500000000002
20
453.88458000000003
10
1.8541000000000003
20
454.10437000000002
10
2.7239400000000002
20
454.46466999999996
10
3.52671
20
454.95660999999996
10
4.2426399999999997
20
455.56806999999998
10
4.8540999999999999
20
456.28399999999999
10
5.3460400000000003
20
457.08677
10
5.70634
20
457.95661000000001
10
5.9261300000000006
20
458.87210000000005
10
6.0000000000000009
20
459.8107
10
5.9261300000000006
20
460.74930000000001
10
5.70634
20
461.66480000000001
10
5.3460400000000003
20
462.53469999999999
10
4.8540999999999999
20
463.3374
10
4.2426399999999997
20
464.05340000000001
10
3.52671
20
464.66479999999996
10
2.7239400000000002
20
465.1567
10
1.8541000000000003
20
465.51699999999994
10
0.93860500000000002
20
465.73680000000002
10
0
20
465.8107
10
-0.93860500000000002
20
465.73680000000002
10
-1.8541000000000003
20
465.51699999999994
10
-2.7239400000000002
20
465.1567
10
-3.52671
20
464.66479999999996
10
-4.2426399999999997
20
464.05340000000001
10
-4.8540999999999999
20
463.3374
10
-5.3460400000000003
20
462.53469999999999
10
-5.70634
20
461.66480000000001
10
-5.9261300000000006
20
460.74930000000001
0
LWPOLYLINE
5
106
100
AcDbEntity
8
0
100
AcDbPolyline
90
40
70
1
43
0.0
10
-23.216700000000003
20
453.59960000000001
10
-23.197600000000001
20
453.35712999999998
10
-23.140800000000002
20
453.12061999999997
10
-23.047699999999999
20
452.89591000000001
10
-22.9206
20
452.68853000000001
10
-22.762699999999999
20
452.50358
10
-22.577700000000004
20
452.34561999999994
10
-22.3704
20
452.21854000000002
10
-22.145600000000002
20
452.12546000000003
10
-21.909100000000002
20
452.06867999999997
10
-21.666699999999999
20
452.0496
10
-21.424199999999999
20
452.06867999999997
10
-21.1877
20
452.12546000000003
10
-20.963000000000001
20
452.21854000000002
10
-20.755600000000001
20
452.34561999999994
10
-20.570699999999999
20
452.50358
10
-20.412700000000005
20
452.68853000000001
10
-20.285600000000002
20
452.89591000000001
10
-20.192499999999999
20
453.12061999999997
10
-20.1357
20
453.35712999999998
10
-20.116700000000002
20
453.59960000000001
10
-20.1357
20
453.84207000000004
10
-20.192499999999999
20
454.07857999999999
10
-20.285600000000002
20
454.30328000000003
10
-20.412700000000005
20
454.51067
10
-20.570699999999999
20
454.69560999999999
10
-20.755600000000001
20
454.85357999999997
10
-20.963000000000001
20
454.98066
10
-21.1877
20
455.07373999999999
10
-21.424199999999999
20
455.13052000000005
10
-21.666699999999999
20
455.14960000000002
10
-21.909100000000002
20
455.13052000000005
10
-22.145600000000002
20
455.07373999999999
10
-22.3704
20
454.98066
10
-22.577700000000004
20
454.85357999999997
10
-22.762699999999999
20
454.69560999999999
10
-22.9206
20
454.51067
10
-23.047699999999999
20
454.30328000000003
10
-23.140800000000002
20
454.07857999999999
10
-23.197600000000001
20
453.84207000000004
0
LWPOLYLINE
5
107
100
AcDbEntity
8
0
100
AcDbPolyline
90
40
70
1
43
0.0
10
-23.216700000000003
20
443.59960000000001
10
-23.197600000000001
20
443.35712999999998
10
-23.140800000000002
20
443.12061999999997
10
-23.047699999999999
20
442.89591999999999
10
-22.9206
20
442.68853000000001
10
-22.762699999999999
20
442.50359000000003
10
-22.577700000000004
20
442.34561999999994
10
-22.3704
20
442.21854000000002
10
-22.145600000000002
20
442.12546000000003
10
-21.909100000000002
20
442.06867999999997
10
-21.666699999999999
20
442.0496
10
-21.424199999999999
20
442.06867999999997
10
-21.1877
20
442.12546000000003
10
-20.963000000000001
20
442.21854000000002
10
-20.755600000000001
20
442.34561999999994
10
-20.570699999999999
20
442.50359000000003
10
-20.412700000000005
20
442.68853000000001
10
-20.285600000000002
20
442.89591999999999
10
-20.192499999999999
20
443.12061999999997
10
-20.1357
20
443.35712999999998
10
-20.116700000000002
20
443.59960000000001
10
-20.1357
20
443.84207000000004
10
-20.192499999999999
20
444.07857999999999
10
-20.285600000000002
20
444.30329
10
-20.412700000000005
20
444.51067
10
-20.570699999999999
20
444.69561999999996
10
-20.755600000000001
20
444.85357999999997
10
-20.963000000000001
20
444.98066
10
-21.1877
20
445.07373999999999
10
-21.424199999999999
20
445.13052000000005
10
-21.666699999999999
20
445.14960000000002
10
-21.909100000000002
20
445.13052000000005
10
-22.145600000000002
20
445.07373999999999
10
-22.3704
20
444.98066
10
-22.577700000000004
20
444.85357999999997
10
-22.762699999999999
20
444.69561999999996
10
-22.9206
20
444.51067
10
-23.047699999999999
20
444.30329
10
-23.140800000000002
20
444.07857999999999
10
-23.197600000000001
20
443.84207000000004
0
LWPOLYLINE
5
108
100
AcDbEntity
8
0
100
AcDbPolyline
90
10
70
1
43
0.0
10
-26.666699999999999
20
438.59960000000001
10
-26.666699999999999
20
458.59960000000001
10
-16.666699999999999
20
458.59960000000001
10
-16.666699999999999
20
493.44400000000002
10
0
20
498.44400000000002
10
35.310899999999997
20
480.94400000000002
10
35.310899999999997
20
416.2552
10
0
20
398.7552
10
-16.666699999999999
20
403.7552
10
-16.666699999999999
20
438.59960000000001
0
ENDSEC
0
SECTION
2
OBJECTS
0
DICTIONARY
5
C
100
AcDbDictionary
3
ACAD_GROUP
350
D
3
ACAD_MLINESTYLE
350
17
0
DICTIONARY
5
D
100
AcDbDictionary
0
DICTIONARY
5
1A
330
C
100
AcDbDictionary
0
DICTIONARY
5
17
100
AcDbDictionary
0
ENDSEC
0
EOF
